<svg width="10" height="16" viewBox="0 0 10 16" fill="none" xmlns="http://www.w3.org/2000/svg">
<path fill-rule="evenodd" clip-rule="evenodd" d="M9.42182 9.29926C9.50981 9.39191 9.51966 9.53378 9.4453 9.63764L4.97253 15.8854C4.96776 15.8922 4.96267 15.8988 4.95729 15.9052C4.94812 15.9161 4.93815 15.9261 4.9275 15.9353C4.88066 15.9756 4.81964 16 4.7529 16C4.68825 16 4.62896 15.9771 4.58274 15.939C4.57334 15.9313 4.56444 15.9228 4.55611 15.9138C4.54807 15.9051 4.54061 15.8958 4.53377 15.8861L0.0503039 9.66499C-0.0243178 9.56145 -0.0150086 9.4197 0.0725168 9.32675C0.160042 9.2338 0.301284 9.21569 0.409535 9.28352L4.75206 12.0046L9.08437 9.25761C9.19235 9.18915 9.33382 9.20661 9.42182 9.29926ZM8.21198 10.4427L5.02022 14.9011V12.4665L8.21198 10.4427ZM1.28151 10.4597L4.48559 12.4674V14.9056L1.28151 10.4597Z" fill="#6B6F76"/>
<path d="M5.02022 10.4479L8.67154 8.13271L5.02022 6.44421V10.4479Z" fill="#6B6F76"/>
<path d="M0.824433 8.15683L4.48559 10.4509V6.44605L0.824433 8.15683Z" fill="#6B6F76"/>
<path d="M4.48559 1.27364L0.916252 7.52498L4.48559 5.85711V1.27364Z" fill="#6B6F76"/>
<path fill-rule="evenodd" clip-rule="evenodd" d="M4.75338 4.0061e-07C4.83543 0.000140808 4.90881 0.0371592 4.95775 0.0953276C4.96912 0.108838 4.97917 0.123489 4.9877 0.139083L9.45999 7.96392C9.4622 7.96778 9.4643 7.97168 9.46629 7.9756C9.49193 8.02605 9.5 8.08134 9.49235 8.13406C9.49019 8.14907 9.48675 8.16379 9.48211 8.17808C9.4636 8.23525 9.42573 8.28646 9.37116 8.32106L4.89967 11.1563C4.86247 11.1807 4.8188 11.1961 4.77178 11.1993C4.76614 11.1997 4.76046 11.2 4.75474 11.2H4.75109L4.74542 11.1999L4.73915 11.1997C4.69065 11.1972 4.64557 11.1819 4.60726 11.157L0.125165 8.34848C0.0702643 8.31408 0.0320802 8.26291 0.0133133 8.20568C-0.00856917 8.13895 -0.00405193 8.06399 0.0311456 7.99781L0.0354702 7.98999L4.51805 0.139201C4.52667 0.123434 4.53683 0.108631 4.54834 0.0949956C4.55745 0.0841918 4.56736 0.0741834 4.57796 0.0650373C4.62484 0.0245177 4.68647 4.0061e-07 4.75338 4.0061e-07ZM0.916252 7.52498L4.48559 1.27364V5.85711L0.916252 7.52498ZM4.48559 10.4509L0.824433 8.15683L4.48559 6.44605V10.4509ZM8.67154 8.13271L5.02022 10.4479V6.44421L8.67154 8.13271ZM5.02022 1.27275L8.58116 7.50306L5.02022 5.85636V1.27275Z" fill="#6B6F76"/>
<path d="M8.58116 7.50306L5.02022 1.27275V5.85636L8.58116 7.50306Z" fill="#6B6F76"/>
<path d="M5.02022 14.9011L8.21198 10.4427L5.02022 12.4665V14.9011Z" fill="#6B6F76"/>
<path d="M4.48559 12.4674L1.28151 10.4597L4.48559 14.9056V12.4674Z" fill="#6B6F76"/>
</svg>
