<svg width="20" height="20" viewBox="0 0 20 20" fill="none" xmlns="http://www.w3.org/2000/svg">
<path fill-rule="evenodd" clip-rule="evenodd" d="M12.8124 13.546C12.6368 14.2094 12.4146 14.8075 12.1576 15.3214C11.7564 16.1239 11.3131 16.6485 10.8805 16.9452C10.5921 16.9814 10.2982 17 10 17C9.70179 17 9.40794 16.9814 9.11955 16.9452C8.6869 16.6485 8.24363 16.1239 7.84239 15.3214C7.5854 14.8075 7.36323 14.2094 7.1876 13.546C8.04225 13.4365 8.99408 13.375 10 13.375C11.0059 13.375 11.9578 13.4365 12.8124 13.546ZM7.76495 16.6356C7.20815 15.8839 6.75105 14.8593 6.44164 13.6578C5.97009 13.7394 5.5376 13.8365 5.15327 13.9464C4.87173 14.0268 4.62049 14.1128 4.40126 14.2024C5.24239 15.3212 6.41109 16.1798 7.76495 16.6356ZM12.2351 16.6356C13.5889 16.1798 14.7576 15.3212 15.5987 14.2024C15.3795 14.1128 15.1283 14.0268 14.8467 13.9464C14.4624 13.8365 14.0299 13.7394 13.5584 13.6578C13.2489 14.8593 12.7919 15.8839 12.2351 16.6356ZM16.0237 13.5679C16.6439 12.5231 17 11.3031 17 10C17 8.69685 16.6439 7.47688 16.0237 6.43207C15.7352 6.55888 15.4084 6.67317 15.0528 6.77479C14.6518 6.88935 14.206 6.99006 13.7241 7.07464C13.9022 7.98073 14 8.96752 14 10C14 11.0325 13.9022 12.0193 13.7241 12.9254C14.206 13.0099 14.6518 13.1106 15.0528 13.2252C15.4084 13.3268 15.7352 13.4411 16.0237 13.5679ZM15.5987 5.79765C14.7576 4.6788 13.5889 3.82024 12.2351 3.3644C12.7919 4.11606 13.2489 5.14066 13.5584 6.34224C14.0299 6.26061 14.4624 6.16345 14.8467 6.05364C15.1283 5.9732 15.3795 5.88721 15.5987 5.79765ZM9.11955 3.05484C9.40794 3.01865 9.70179 3 10 3C10.2982 3 10.5921 3.01865 10.8805 3.05484C11.3131 3.35146 11.7564 3.87609 12.1576 4.67856C12.4146 5.19254 12.6368 5.79061 12.8124 6.45403C11.9578 6.56347 11.0059 6.625 10 6.625C8.99408 6.625 8.04225 6.56347 7.1876 6.45403C7.36323 5.79061 7.5854 5.19254 7.84239 4.67856C8.24363 3.87609 8.6869 3.35146 9.11955 3.05484ZM7.76495 3.3644C6.4111 3.82024 5.24239 4.6788 4.40126 5.79765C4.62049 5.88721 4.87173 5.9732 5.15327 6.05364C5.5376 6.16345 5.97009 6.26061 6.44164 6.34224C6.75105 5.14066 7.20815 4.11606 7.76495 3.3644ZM3.97628 6.43207C3.35609 7.47688 3 8.69685 3 10C3 11.3031 3.35609 12.5231 3.97628 13.5679C4.26483 13.4411 4.59158 13.3268 4.94723 13.2252C5.34822 13.1106 5.79404 13.0099 6.27587 12.9254C6.0978 12.0193 6 11.0325 6 10C6 8.96752 6.0978 7.98073 6.27587 7.07464C5.79404 6.99006 5.34822 6.88935 4.94723 6.77478C4.59158 6.67317 4.26483 6.55888 3.97628 6.43207ZM10 7.375C8.93946 7.375 7.92921 7.30859 7.01792 7.18827C6.84636 8.04983 6.75 8.99835 6.75 10C6.75 11.0017 6.84636 11.9502 7.01792 12.8117C7.92921 12.6914 8.93946 12.625 10 12.625C11.0605 12.625 12.0708 12.6914 12.9821 12.8117C13.1536 11.9502 13.25 11.0017 13.25 10C13.25 8.99835 13.1536 8.04983 12.9821 7.18828C12.0708 7.30859 11.0605 7.375 10 7.375Z" fill="#A9ADB1"/>
</svg>
