<svg width="240" height="240" viewBox="0 0 240 240" fill="none" xmlns="http://www.w3.org/2000/svg">
<path d="M120.13 0V118.948M120.13 118.948V119.053M120.13 118.948H120.235M120.13 118.948H119.803M120.13 119.053V119.276M120.13 119.053L120.235 118.948M120.13 119.053L120.019 119.164M120.13 119.276V240M120.13 119.276L120.019 119.164M120.13 119.276L205.615 204.761M240 118.948H120.235M120.235 118.948L204.78 34.4036M119.803 118.948H0M119.803 118.948L35.9095 35.0553M119.803 118.948L120.019 119.164M120.019 119.164L35.0739 204.109M74.3492 9.02248L119.719 118.978M119.719 118.978L119.759 119.075M119.719 118.978L119.816 118.938M119.719 118.978L119.416 119.103M119.759 119.075L119.844 119.281M119.759 119.075L119.816 118.938M119.759 119.075L119.699 119.221M119.844 119.281L165.891 230.878M119.844 119.281L119.699 119.221M119.844 119.281L231.472 165.697M230.527 73.257L119.816 118.938M119.816 118.938L165.722 8.5377M119.416 119.103L8.67086 164.799M119.416 119.103L9.86672 73.5513M119.416 119.103L119.699 119.221M119.699 119.221L73.5756 230.143" stroke="#81FFA1" stroke-width="12"/>
</svg>
