<svg width="65" height="69" viewBox="0 0 65 69" fill="none" xmlns="http://www.w3.org/2000/svg">
<path d="M34.3782 10.4448C33.3805 9.28142 31.5804 9.28143 30.5827 10.4448L27.2873 14.2875C26.8701 14.774 26.1898 14.9417 25.5943 14.7048L20.8906 12.8337C19.4665 12.2672 17.8726 13.1038 17.5299 14.5976L16.3977 19.5315C16.2543 20.1562 15.7299 20.6208 15.0925 20.6878L10.058 21.217C8.53383 21.3772 7.51129 22.8586 7.90198 24.3406L9.19242 29.2355C9.35581 29.8553 9.10736 30.5104 8.57409 30.866L4.36223 33.6742C3.08706 34.5244 2.87009 36.3113 3.90473 37.4419L7.32216 41.1765C7.75485 41.6493 7.8393 42.3449 7.53234 42.9075L5.10796 47.3514C4.37396 48.6968 5.01227 50.3799 6.45385 50.9002L11.2154 52.6188C11.8182 52.8364 12.2162 53.4131 12.2059 54.0539L12.1244 59.1154C12.0997 60.6478 13.4471 61.8415 14.9653 61.6323L19.9801 60.9413C20.6151 60.8538 21.2355 61.1794 21.5241 61.7516L23.8042 66.2713C24.4945 67.6396 26.2422 68.0704 27.4893 67.1796L31.6086 64.2372C32.1302 63.8647 32.8308 63.8647 33.3523 64.2372L37.4716 67.1796C38.7187 68.0704 40.4665 67.6396 41.1568 66.2713L43.4368 61.7516C43.7255 61.1794 44.3459 60.8538 44.9808 60.9413L49.9956 61.6323C51.5139 61.8415 52.8612 60.6478 52.8365 59.1154L52.755 54.0539C52.7447 53.4131 53.1427 52.8364 53.7456 52.6188L58.5071 50.9002C59.9487 50.3799 60.587 48.6968 59.853 47.3514L57.4286 42.9075C57.1216 42.3449 57.2061 41.6493 57.6388 41.1765L61.0562 37.4419C62.0908 36.3113 61.8739 34.5244 60.5987 33.6742L56.3868 30.866C55.8536 30.5104 55.6051 29.8553 55.7685 29.2356L57.059 24.3406C57.4496 22.8586 56.4271 21.3772 54.9029 21.217L49.8684 20.6878C49.231 20.6208 48.7066 20.1562 48.5632 19.5315L47.4311 14.5976C47.0883 13.1038 45.4944 12.2672 44.0704 12.8337L39.3667 14.7048C38.7711 14.9417 38.0908 14.774 37.6736 14.2875L34.3782 10.4448Z" fill="url(#paint0_linear_5701_12831)" stroke="#2F3134"/>
<path d="M34.3782 1.44481C33.3805 0.281425 31.5804 0.281425 30.5827 1.44481L26.9044 5.73397C26.4872 6.2205 25.8069 6.38817 25.2114 6.15127L19.9611 4.06281C18.537 3.49633 16.9432 4.33286 16.6004 5.82664L15.3367 11.3339C15.1934 11.9586 14.6689 12.4232 14.0315 12.4902L8.41207 13.0809C6.88787 13.2411 5.86532 14.7225 6.25601 16.2045L7.6964 21.6682C7.85978 22.2879 7.61134 22.943 7.07806 23.2986L2.37681 26.4331C1.10164 27.2833 0.884672 29.0702 1.91932 30.2009L5.73383 34.3694C6.16652 34.8422 6.25097 35.5377 5.94401 36.1004L3.23793 41.0606C2.50393 42.406 3.14224 44.0891 4.58382 44.6094L9.89859 46.5277C10.5015 46.7453 10.8995 47.322 10.8891 47.9628L10.7982 53.6125C10.7735 55.1449 12.1208 56.3385 13.6391 56.1293L19.2366 55.358C19.8715 55.2705 20.4919 55.5961 20.7806 56.1684L23.3256 61.2132C24.0158 62.5815 25.7636 63.0123 27.0107 62.1215L31.6086 58.8372C32.1302 58.4647 32.8308 58.4647 33.3523 58.8372L37.9502 62.1215C39.1973 63.0123 40.9451 62.5815 41.6354 61.2132L44.1803 56.1684C44.469 55.5961 45.0894 55.2705 45.7243 55.358L51.3218 56.1293C52.8401 56.3385 54.1875 55.1449 54.1628 53.6125L54.0718 47.9628C54.0615 47.322 54.4595 46.7453 55.0623 46.5277L60.3771 44.6094C61.8187 44.0891 62.457 42.406 61.723 41.0606L59.0169 36.1004C58.71 35.5377 58.7944 34.8422 59.2271 34.3694L63.0416 30.2009C64.0763 29.0702 63.8593 27.2833 62.5841 26.4331L57.8829 23.2986C57.3496 22.943 57.1012 22.2879 57.2645 21.6682L58.7049 16.2045C59.0956 14.7225 58.0731 13.2411 56.5489 13.0809L50.9294 12.4902C50.292 12.4232 49.7676 11.9586 49.6242 11.3339L48.3605 5.82664C48.0178 4.33286 46.4239 3.49633 44.9998 4.06281L39.7496 6.15127C39.154 6.38817 38.4737 6.2205 38.0565 5.73397L34.3782 1.44481Z" fill="white" stroke="#2F3134"/>
<g clip-path="url(#clip0_5701_12831)">
<mask id="mask0_5701_12831" style="mask-type:alpha" maskUnits="userSpaceOnUse" x="14" y="14" width="25" height="24">
<path fill-rule="evenodd" clip-rule="evenodd" d="M14.4805 14H38.4805V38H14.4805V14Z" fill="white"/>
</mask>
<g mask="url(#mask0_5701_12831)">
<path d="M26.5359 14.5005C32.8602 14.558 37.9792 19.6731 37.9805 26.1182C37.9218 32.3839 32.8043 37.5005 26.4805 37.5005C20.159 37.5005 14.9817 32.3272 14.9805 25.9428C15.0392 19.613 20.1597 14.443 26.5359 14.5005ZM26.5359 14.5005L26.5405 14.0005M26.5359 14.5005L26.5405 14.0005M26.5405 14.0005C19.8805 13.9405 14.5405 19.3405 14.4805 25.9405L38.4805 26.1205C38.4805 19.4005 33.1405 14.0605 26.5405 14.0005Z" stroke="#2F3134"/>
<path fill-rule="evenodd" clip-rule="evenodd" d="M27.6207 24.5576L27.2607 26.4776L30.6807 26.9576L30.4407 27.8576L27.0807 27.3776C26.8407 28.1576 26.7207 28.9976 26.4207 29.7176C26.1207 30.5576 25.8207 31.3976 25.4607 32.1776C24.9807 33.1976 24.1407 33.9176 23.0007 34.0976C22.3407 34.2176 21.6207 34.1576 21.0807 33.7376C20.9007 33.6176 20.7207 33.3776 20.7207 33.1976C20.7207 32.9576 20.8407 32.6576 21.0207 32.5376C21.1407 32.4776 21.4407 32.5376 21.6207 32.5976C21.8007 32.7776 21.9807 33.0176 22.1007 33.2576C22.4607 33.7376 22.9407 33.7976 23.4207 33.4376C23.9607 32.9576 24.2607 32.2976 24.4407 31.6376C24.8007 30.1976 25.1607 28.8176 25.4607 27.3776V27.1376L22.2807 26.6576L22.4007 25.7576L25.7007 26.2376L26.1207 24.3776L22.7007 23.8376L22.8207 22.8776L26.3607 23.3576C26.4807 22.9976 26.5407 22.6976 26.6607 22.3976C26.9607 21.3176 27.2607 20.2376 27.9807 19.2776C28.7007 18.3176 29.5407 17.7176 30.8007 17.7776C31.3407 17.7776 31.8807 17.9576 32.2407 18.3776C32.3007 18.4376 32.4207 18.5576 32.4207 18.6776C32.4207 18.9176 32.4207 19.2176 32.2407 19.3976C32.0007 19.5776 31.7007 19.5176 31.4607 19.2776C31.2807 19.0976 31.1607 18.9176 30.9807 18.7376C30.6207 18.2576 30.0807 18.1976 29.6607 18.6176C29.3607 18.9176 29.0607 19.3376 28.8807 19.7576C28.4607 21.0176 28.1607 22.3376 27.7407 23.6576L31.0407 24.1376L30.8007 25.0376L27.6207 24.5576Z" fill="#2F3134"/>
</g>
</g>
<g clip-path="url(#clip1_5701_12831)">
<path d="M28.5195 43.8788L39.4544 49.8176L50.3894 43.8788V32.0013L39.4544 26.0625L28.5195 32.0013V43.8788Z" fill="#4E5156"/>
<path d="M38.3348 27.4844L30.3939 31.7946C30.407 31.929 30.407 32.0642 30.3939 32.1987L38.3218 36.5089C38.6477 36.2822 39.0424 36.1598 39.4478 36.1598C39.8532 36.1598 40.2479 36.2822 40.5738 36.5089L48.5016 32.1987C48.4886 32.0642 48.4886 31.929 48.5016 31.7946L40.5868 27.4844C40.2609 27.7111 39.8662 27.8334 39.4608 27.8334C39.0554 27.8334 38.6607 27.7111 38.3348 27.4844ZM49.2697 33.3864L41.3289 37.7456C41.3719 38.1237 41.2868 38.5049 41.0857 38.8347C40.8847 39.1646 40.5779 39.4263 40.2093 39.5823L40.2223 48.1538C40.3507 48.207 40.4729 48.2727 40.5868 48.3497L48.5146 44.0395C48.4716 43.6614 48.5567 43.2802 48.7578 42.9503C48.9588 42.6205 49.2656 42.3588 49.6342 42.2027V33.5823C49.5073 33.5264 49.3854 33.4608 49.2697 33.3864ZM29.6389 33.4354C29.5249 33.5124 29.4028 33.5781 29.2744 33.6313V42.2517C29.6475 42.4023 29.9585 42.6628 30.1604 42.9941C30.3624 43.3254 30.4443 43.7095 30.3939 44.0885L38.3218 48.3987C38.4357 48.3217 38.5579 48.256 38.6862 48.2027V39.5823C38.3131 39.4318 38.0022 39.1712 37.8002 38.8399C37.5983 38.5086 37.5163 38.1245 37.5667 37.7456L29.6389 33.4354Z" fill="white"/>
<path d="M39.4544 27.3472L49.2308 32.6614V43.2778L39.4544 48.5921L29.6781 43.2778V32.6492L39.4544 27.3472ZM39.4544 26.0859L28.5195 32.0247V43.9023L39.4544 49.841L50.3894 43.9023V32.0247L39.4544 26.0859Z" fill="#4E5156"/>
<path d="M39.5326 39.9594H39.3763C39.1077 39.9601 38.8417 39.9108 38.5934 39.8144C38.3451 39.718 38.1195 39.5764 37.9296 39.3978C37.7397 39.2191 37.5892 39.0069 37.4867 38.7734C37.3843 38.5399 37.3319 38.2896 37.3325 38.037V37.89C37.3319 37.6374 37.3843 37.3871 37.4867 37.1536C37.5892 36.92 37.7397 36.7078 37.9296 36.5292C38.1195 36.3506 38.3451 36.209 38.5934 36.1126C38.8417 36.0162 39.1077 35.9669 39.3763 35.9676H39.5326C39.8011 35.9669 40.0672 36.0162 40.3155 36.1126C40.5638 36.209 40.7893 36.3506 40.9793 36.5292C41.1692 36.7078 41.3197 36.92 41.4222 37.1536C41.5246 37.3871 41.577 37.6374 41.5763 37.89V38.037C41.577 38.2896 41.5246 38.5399 41.4222 38.7734C41.3197 39.0069 41.1692 39.2191 40.9793 39.3978C40.7893 39.5764 40.5638 39.718 40.3155 39.8144C40.0672 39.9108 39.8011 39.9601 39.5326 39.9594ZM39.5326 47.8574H39.3763C39.0132 47.8563 38.6564 47.9466 38.3429 48.1188C38.0293 48.2911 37.7704 48.539 37.5929 48.837L39.4544 49.841L41.316 48.837C41.1385 48.539 40.8796 48.2911 40.566 48.1188C40.2524 47.9466 39.8957 47.8563 39.5326 47.8574ZM50.4024 41.9186H50.3243C50.0557 41.9179 49.7896 41.9672 49.5413 42.0636C49.2931 42.16 49.0675 42.3016 48.8776 42.4802C48.6876 42.6589 48.5371 42.8711 48.4347 43.1046C48.3322 43.3381 48.2798 43.5884 48.2805 43.841V43.988C48.2786 44.3143 48.3684 44.6354 48.5408 44.9186L50.4024 43.9023V41.9186ZM48.5408 31.0206C48.3699 31.3044 48.2802 31.6251 48.2805 31.9512V32.0982C48.2798 32.3508 48.3322 32.6011 48.4347 32.8346C48.5371 33.0682 48.6876 33.2804 48.8776 33.459C49.0675 33.6376 49.2931 33.7792 49.5413 33.8756C49.7896 33.972 50.0557 34.0213 50.3243 34.0206H50.4024V32.0247L48.5408 31.0206ZM39.4544 26.0859L37.5929 27.09C37.7696 27.3896 38.0279 27.6394 38.3414 27.8138C38.6549 27.9881 39.0122 28.0806 39.3763 28.0819H39.5326C39.8957 28.0829 40.2524 27.9926 40.566 27.8204C40.8796 27.6482 41.1385 27.4002 41.316 27.1023L39.4544 26.0859ZM30.3811 31.0084L28.5195 32.0247V34.0206H28.5976C28.8662 34.0213 29.1323 33.972 29.3806 33.8756C29.6288 33.7792 29.8544 33.6376 30.0443 33.459C30.2343 33.2804 30.3848 33.0682 30.4873 32.8346C30.5897 32.6011 30.6421 32.3508 30.6414 32.0982V31.9512C30.637 31.6218 30.5477 31.2982 30.3811 31.0084ZM28.5976 41.9186H28.5195V43.9023L30.3811 44.9186C30.552 44.6348 30.6417 44.3141 30.6414 43.988V43.841C30.6421 43.5884 30.5897 43.3381 30.4873 43.1046C30.3848 42.8711 30.2343 42.6589 30.0443 42.4802C29.8544 42.3016 29.6288 42.16 29.3806 42.0636C29.1323 41.9672 28.8662 41.9179 28.5976 41.9186Z" fill="#4E5156"/>
<path d="M39.4544 49.8989V38.0091L28.5195 32.0703V43.9601L39.4544 49.8989Z" fill="white" fill-opacity="0.15"/>
<path d="M50.4027 43.8541V31.9766L39.4678 37.9153V49.8051L50.4027 43.8541Z" fill="white" fill-opacity="0.05"/>
</g>
<defs>
<linearGradient id="paint0_linear_5701_12831" x1="2.94059" y1="10.0811" x2="68.3787" y2="17.5885" gradientUnits="userSpaceOnUse">
<stop stop-color="#028FFF"/>
<stop offset="1" stop-color="#04E762"/>
</linearGradient>
<clipPath id="clip0_5701_12831">
<rect width="24" height="24" fill="white" transform="translate(14.4805 14)"/>
</clipPath>
<clipPath id="clip1_5701_12831">
<rect width="22" height="24" fill="white" transform="translate(28.4805 26)"/>
</clipPath>
</defs>
</svg>
