<svg width="65" height="69" viewBox="0 0 65 69" fill="none" xmlns="http://www.w3.org/2000/svg">
<path d="M34.0452 10.4448C33.0475 9.28142 31.2474 9.28143 30.2497 10.4448L26.9543 14.2875C26.5371 14.774 25.8568 14.9417 25.2613 14.7048L20.5576 12.8337C19.1335 12.2672 17.5396 13.1038 17.1968 14.5976L16.0647 19.5315C15.9213 20.1562 15.3969 20.6208 14.7595 20.6878L9.72503 21.217C8.20083 21.3772 7.17828 22.8586 7.56897 24.3406L8.85942 29.2355C9.0228 29.8553 8.77436 30.5104 8.24108 30.866L4.02922 33.6742C2.75405 34.5244 2.53708 36.3113 3.57173 37.4419L6.98915 41.1765C7.42184 41.6493 7.50629 42.3449 7.19934 42.9075L4.77495 47.3514C4.04096 48.6968 4.67927 50.3799 6.12084 50.9002L10.8824 52.6188C11.4852 52.8364 11.8832 53.4131 11.8729 54.0539L11.7914 59.1154C11.7667 60.6478 13.1141 61.8415 14.6323 61.6323L19.6471 60.9413C20.2821 60.8538 20.9025 61.1794 21.1911 61.7516L23.4712 66.2713C24.1615 67.6396 25.9092 68.0704 27.1563 67.1796L31.2756 64.2372C31.7971 63.8647 32.4978 63.8647 33.0193 64.2372L37.1386 67.1796C38.3857 68.0704 40.1335 67.6396 40.8237 66.2713L43.1038 61.7516C43.3925 61.1794 44.0128 60.8538 44.6478 60.9413L49.6626 61.6323C51.1808 61.8415 52.5282 60.6478 52.5035 59.1154L52.422 54.0539C52.4117 53.4131 52.8097 52.8364 53.4126 52.6188L58.1741 50.9002C59.6157 50.3799 60.254 48.6968 59.52 47.3514L57.0956 42.9075C56.7886 42.3449 56.8731 41.6493 57.3058 41.1765L60.7232 37.4419C61.7578 36.3113 61.5409 34.5244 60.2657 33.6742L56.0538 30.866C55.5206 30.5104 55.2721 29.8553 55.4355 29.2356L56.726 24.3406C57.1166 22.8586 56.0941 21.3772 54.5699 21.217L49.5354 20.6878C48.898 20.6208 48.3736 20.1562 48.2302 19.5315L47.0981 14.5976C46.7553 13.1038 45.1614 12.2672 43.7374 12.8337L39.0337 14.7048C38.4381 14.9417 37.7578 14.774 37.3406 14.2875L34.0452 10.4448Z" fill="url(#paint0_linear_5701_12721)" stroke="#2F3134"/>
<path d="M34.0452 1.44481C33.0475 0.281425 31.2474 0.281425 30.2497 1.44481L26.5714 5.73397C26.1542 6.2205 25.4739 6.38817 24.8784 6.15127L19.6281 4.06281C18.204 3.49633 16.6102 4.33286 16.2674 5.82664L15.0037 11.3339C14.8603 11.9586 14.3359 12.4232 13.6985 12.4902L8.07907 13.0809C6.55486 13.2411 5.53231 14.7225 5.923 16.2045L7.36339 21.6682C7.52678 22.2879 7.27833 22.943 6.74505 23.2986L2.0438 26.4331C0.768636 27.2833 0.551665 29.0702 1.58631 30.2009L5.40082 34.3694C5.83351 34.8422 5.91796 35.5377 5.611 36.1004L2.90492 41.0606C2.17092 42.406 2.80923 44.0891 4.25081 44.6094L9.56558 46.5277C10.1685 46.7453 10.5665 47.322 10.5561 47.9628L10.4652 53.6125C10.4405 55.1449 11.7878 56.3385 13.3061 56.1293L18.9036 55.358C19.5385 55.2705 20.1589 55.5961 20.4476 56.1684L22.9925 61.2132C23.6828 62.5815 25.4306 63.0123 26.6777 62.1215L31.2756 58.8372C31.7971 58.4647 32.4978 58.4647 33.0193 58.8372L37.6172 62.1215C38.8643 63.0123 40.6121 62.5815 41.3024 61.2132L43.8473 56.1684C44.136 55.5961 44.7564 55.2705 45.3913 55.358L50.9888 56.1293C52.5071 56.3385 53.8544 55.1449 53.8298 53.6125L53.7388 47.9628C53.7285 47.322 54.1265 46.7453 54.7293 46.5277L60.0441 44.6094C61.4857 44.0891 62.124 42.406 61.39 41.0606L58.6839 36.1004C58.377 35.5377 58.4614 34.8422 58.8941 34.3694L62.7086 30.2009C63.7433 29.0702 63.5263 27.2833 62.2511 26.4331L57.5499 23.2986C57.0166 22.943 56.7681 22.2879 56.9315 21.6682L58.3719 16.2045C58.7626 14.7225 57.7401 13.2411 56.2159 13.0809L50.5964 12.4902C49.959 12.4232 49.4346 11.9586 49.2912 11.3339L48.0275 5.82664C47.6847 4.33286 46.0909 3.49633 44.6668 4.06281L39.4166 6.15127C38.821 6.38817 38.1407 6.2205 37.7235 5.73397L34.0452 1.44481Z" fill="white" stroke="#2F3134"/>
<g clip-path="url(#clip0_5701_12721)">
<mask id="mask0_5701_12721" style="mask-type:alpha" maskUnits="userSpaceOnUse" x="16" y="16" width="33" height="32">
<path fill-rule="evenodd" clip-rule="evenodd" d="M16.4805 16H48.4805V48H16.4805V16Z" fill="white"/>
</mask>
<g mask="url(#mask0_5701_12721)">
<path d="M16.9805 31.9229C16.9817 40.5274 23.959 47.5007 32.4805 47.5007C41.0043 47.5007 47.9018 40.604 47.9805 32.1584C47.9792 23.4732 41.0802 16.5781 32.556 16.5006C32.556 16.5006 32.5559 16.5006 32.5559 16.5006M16.9805 31.9229L16.4805 31.9207C16.5605 23.1207 23.6805 15.9207 32.5605 16.0007L32.5559 16.5006M16.9805 31.9229C17.0592 23.3932 23.9597 16.4232 32.5559 16.5006M16.9805 31.9229L32.5559 16.5006" stroke="#2F3134"/>
<path fill-rule="evenodd" clip-rule="evenodd" d="M34.0008 30.0767L33.5208 32.6367L38.0808 33.2767L37.7608 34.4767L33.2808 33.8367C32.9608 34.8767 32.8008 35.9967 32.4008 36.9567C32.0008 38.0767 31.6008 39.1967 31.1208 40.2367C30.4808 41.5967 29.3608 42.5567 27.8408 42.7967C26.9608 42.9567 26.0008 42.8767 25.2808 42.3167C25.0408 42.1567 24.8008 41.8367 24.8008 41.5967C24.8008 41.2767 24.9608 40.8767 25.2008 40.7167C25.3608 40.6367 25.7608 40.7167 26.0008 40.7967C26.2408 41.0367 26.4808 41.3567 26.6408 41.6767C27.1208 42.3167 27.7608 42.3967 28.4008 41.9167C29.1208 41.2767 29.5208 40.3967 29.7608 39.5167C30.2408 37.5967 30.7208 35.7567 31.1208 33.8367V33.5167L26.8808 32.8767L27.0408 31.6767L31.4408 32.3167L32.0008 29.8367L27.4408 29.1167L27.6008 27.8367L32.3208 28.4767C32.4808 27.9967 32.5608 27.5967 32.7208 27.1967C33.1208 25.7567 33.5208 24.3167 34.4808 23.0367C35.4408 21.7567 36.5608 20.9567 38.2408 21.0367C38.9608 21.0367 39.6808 21.2767 40.1608 21.8367C40.2408 21.9167 40.4008 22.0767 40.4008 22.2367C40.4008 22.5567 40.4008 22.9567 40.1608 23.1967C39.8408 23.4367 39.4408 23.3567 39.1208 23.0367C38.8808 22.7967 38.7208 22.5567 38.4808 22.3167C38.0008 21.6767 37.2808 21.5967 36.7208 22.1567C36.3208 22.5567 35.9208 23.1167 35.6808 23.6767C35.1208 25.3567 34.7208 27.1167 34.1608 28.8767L38.5608 29.5167L38.2408 30.7167L34.0008 30.0767Z" fill="#2F3134"/>
</g>
</g>
<defs>
<linearGradient id="paint0_linear_5701_12721" x1="2.60758" y1="10.0811" x2="68.0456" y2="17.5885" gradientUnits="userSpaceOnUse">
<stop stop-color="#028FFF"/>
<stop offset="1" stop-color="#04E762"/>
</linearGradient>
<clipPath id="clip0_5701_12721">
<rect width="32" height="32" fill="white" transform="translate(16.4805 16)"/>
</clipPath>
</defs>
</svg>
