<svg width="372" height="200" viewBox="0 0 372 200" fill="none" xmlns="http://www.w3.org/2000/svg">
<mask id="mask0_6330_16039" style="mask-type:luminance" maskUnits="userSpaceOnUse" x="56" y="52" width="260" height="96">
<path d="M316 52H56V148H316V52Z" fill="white"/>
</mask>
<g mask="url(#mask0_6330_16039)">
<path d="M141.968 102.438C143.744 102.438 145.337 102.921 146.747 103.888C148.157 104.855 149.2 106.122 149.877 107.689L146.83 109.022C146.419 108.056 145.775 107.272 144.898 106.672C144.032 106.072 143.055 105.772 141.968 105.772C140.513 105.772 139.27 106.289 138.238 107.322C137.216 108.345 136.705 109.584 136.705 111.04V116.258L142.084 116.241V119.575L136.705 119.592V126.36H133.375V110.956C133.408 109.378 133.808 107.95 134.574 106.672C135.34 105.383 136.367 104.355 137.655 103.588C138.954 102.821 140.391 102.438 141.968 102.438Z" fill="url(#paint0_linear_6330_16039)"/>
<path d="M153.451 126.426V109.271H156.781V126.426H153.451ZM153.451 105.687V102.52H156.781V105.687H153.451Z" fill="url(#paint1_linear_6330_16039)"/>
<path d="M163.668 117.79C163.668 119.246 164.179 120.491 165.2 121.525C166.233 122.547 167.476 123.058 168.931 123.058V126.392C167.343 126.392 165.9 126.009 164.601 125.242C163.302 124.464 162.264 123.425 161.487 122.125C160.721 120.813 160.338 119.369 160.338 117.79H163.668ZM163.668 102.453V117.79H160.338V102.453H163.668Z" fill="url(#paint2_linear_6330_16039)"/>
<path d="M180.247 109.188C181.824 109.188 183.262 109.576 184.56 110.354C185.87 111.121 186.903 112.149 187.658 113.439C188.424 114.728 188.818 116.173 188.84 117.773V119.373H188.574V119.39H180.114V116.056H185.226C184.849 115.011 184.211 114.161 183.311 113.505C182.423 112.849 181.402 112.522 180.247 112.522C178.804 112.522 177.566 113.039 176.534 114.072C175.502 115.095 174.985 116.334 174.985 117.79C174.985 118.801 175.252 119.701 175.785 120.49C176.329 121.28 177 121.902 177.8 122.357C178.61 122.802 179.443 123.035 180.297 123.058L180.214 126.392C178.06 126.314 176.129 125.514 174.419 123.991C172.576 122.224 171.655 120.157 171.655 117.79C171.655 116.212 172.043 114.772 172.821 113.472C173.598 112.161 174.636 111.121 175.935 110.354C177.233 109.576 178.671 109.188 180.247 109.188Z" fill="url(#paint3_linear_6330_16039)"/>
<path d="M226.994 117.79V109.271H230.324V117.79C230.324 119.368 229.936 120.813 229.158 122.125C228.381 123.425 227.343 124.464 226.045 125.242C224.746 126.009 223.308 126.392 221.732 126.392C220.144 126.392 218.701 126.009 217.402 125.242C216.103 124.464 215.065 123.425 214.288 122.125C213.522 120.813 213.139 119.368 213.139 117.79V109.271H216.469V117.79C216.469 119.246 216.98 120.491 218.001 121.524C219.034 122.547 220.277 123.058 221.732 123.058C223.175 123.058 224.413 122.547 225.445 121.524C226.477 120.491 226.994 119.246 226.994 117.79Z" fill="url(#paint4_linear_6330_16039)"/>
<path d="M242.474 109.271C244.061 109.271 245.504 109.66 246.803 110.438C248.102 111.216 249.135 112.255 249.901 113.556C250.678 114.856 251.066 116.295 251.066 117.874V126.392H247.736V117.874C247.736 116.429 247.22 115.19 246.187 114.156C245.166 113.122 243.928 112.606 242.474 112.606C241.03 112.606 239.793 113.122 238.76 114.156C237.728 115.19 237.212 116.429 237.212 117.874V126.392H233.881V117.874C233.881 116.295 234.27 114.856 235.047 113.556C235.824 112.255 236.862 111.216 238.161 110.438C239.46 109.66 240.897 109.271 242.474 109.271Z" fill="url(#paint5_linear_6330_16039)"/>
<path d="M263.216 109.271C264.803 109.271 266.246 109.66 267.545 110.438C268.844 111.216 269.877 112.255 270.643 113.556C271.42 114.856 271.808 116.295 271.808 117.874V126.392H268.478V117.874C268.478 116.429 267.962 115.19 266.929 114.156C265.908 113.122 264.67 112.606 263.216 112.606C261.772 112.606 260.535 113.122 259.502 114.156C258.47 115.19 257.954 116.429 257.954 117.874V126.392H254.623V117.874C254.623 116.295 255.012 114.856 255.789 113.556C256.566 112.255 257.604 111.216 258.903 110.438C260.202 109.66 261.639 109.271 263.216 109.271Z" fill="url(#paint6_linear_6330_16039)"/>
<path d="M275.365 126.426V109.271H278.696V126.426H275.365ZM275.365 105.687V102.52H278.696V105.687H275.365Z" fill="url(#paint7_linear_6330_16039)"/>
<path d="M290.845 109.188C292.422 109.188 293.859 109.576 295.158 110.354C296.468 111.121 297.5 112.149 298.255 113.439C299.021 114.728 299.415 116.173 299.438 117.773V119.373H299.171V119.39H290.712V116.056H295.824C295.447 115.011 294.808 114.161 293.909 113.505C293.021 112.849 292 112.522 290.845 112.522C289.402 112.522 288.164 113.039 287.132 114.072C286.099 115.095 285.583 116.334 285.583 117.79C285.583 118.801 285.849 119.701 286.382 120.49C286.926 121.28 287.598 121.902 288.397 122.357C289.208 122.802 290.04 123.035 290.895 123.058L290.812 126.392C288.658 126.314 286.726 125.514 285.017 123.991C283.174 122.224 282.253 120.157 282.253 117.79C282.253 116.212 282.641 114.772 283.418 113.472C284.195 112.161 285.233 111.121 286.532 110.354C287.831 109.576 289.269 109.188 290.845 109.188Z" fill="url(#paint8_linear_6330_16039)"/>
<path d="M313.819 116.558C315.273 117.736 316 119.119 316 120.709C316 121.753 315.706 122.704 315.117 123.559C314.54 124.415 313.758 125.099 312.769 125.61C311.781 126.121 310.688 126.377 309.489 126.377C308.301 126.377 307.213 126.121 306.225 125.61C305.237 125.099 304.449 124.415 303.861 123.559C303.283 122.704 302.995 121.753 302.995 120.709H306.258C306.258 121.42 306.575 122.031 307.208 122.543C307.84 123.043 308.601 123.293 309.489 123.293C310.388 123.293 311.154 123.043 311.787 122.543C312.42 122.031 312.736 121.42 312.736 120.709C312.736 120.22 312.57 119.786 312.237 119.408C311.904 119.019 311.487 118.714 310.988 118.492C310.499 118.269 309.989 118.153 309.456 118.141C308.301 118.053 307.269 117.669 306.358 116.991C305.226 116.069 304.66 114.974 304.66 113.707C304.66 112.484 305.154 111.44 306.142 110.573C307.13 109.695 308.318 109.256 309.705 109.256C311.104 109.256 312.298 109.695 313.286 110.573C314.274 111.44 314.768 112.484 314.768 113.707H311.487C311.487 113.34 311.31 113.023 310.954 112.757C310.61 112.49 310.194 112.357 309.705 112.357C309.228 112.357 308.812 112.49 308.457 112.757C308.101 113.023 307.924 113.34 307.924 113.707C307.924 113.974 308.024 114.207 308.223 114.407C308.423 114.607 308.662 114.763 308.939 114.874C309.217 114.985 309.483 115.046 309.739 115.057C311.26 115.157 312.62 115.657 313.819 116.558Z" fill="url(#paint9_linear_6330_16039)"/>
<path d="M206.919 111.55C208.762 113.32 209.684 115.396 209.684 117.778C209.684 119.358 209.298 120.8 208.525 122.102C207.763 123.404 206.737 124.445 205.445 125.224C204.154 126.003 202.719 126.393 201.14 126.393C199.584 126.393 198.16 126.009 196.869 125.241C195.577 124.461 194.551 123.432 193.789 122.152C193.027 120.872 192.63 119.436 192.597 117.844V102.418H195.908C197.134 102.462 198.237 102.785 199.22 103.386C200.213 103.976 201.003 104.772 201.588 105.774C202.184 106.764 202.482 107.855 202.482 109.046C202.482 109.135 202.482 109.219 202.482 109.296C204.126 109.619 205.605 110.371 206.919 111.55ZM199.17 109.046C199.17 108.167 198.856 107.415 198.226 106.792C197.608 106.169 196.836 105.824 195.908 105.757V112.352C196.836 112.285 197.608 111.94 198.226 111.317C198.856 110.693 199.17 109.936 199.17 109.046ZM201.14 123.053C202.586 123.053 203.817 122.536 204.833 121.501C205.859 120.466 206.373 119.225 206.373 117.778C206.373 116.809 206.13 115.947 205.644 115.19C205.169 114.433 204.562 113.826 203.823 113.37C203.083 112.903 202.305 112.619 201.488 112.519C200.892 113.465 200.108 114.222 199.137 114.789C198.177 115.346 197.101 115.646 195.908 115.691V117.778C195.908 119.225 196.422 120.466 197.448 121.501C198.475 122.536 199.706 123.053 201.14 123.053Z" fill="url(#paint10_linear_6330_16039)"/>
<path fill-rule="evenodd" clip-rule="evenodd" d="M91.1269 103.087C96.7049 103.353 102.592 104.136 107.182 105.228C109.735 105.83 109.425 105.675 109.838 106.518C110.276 107.421 110.912 109.269 111.187 110.473C111.668 112.554 111.849 114.257 111.849 116.622C111.849 119.442 111.514 121.833 110.8 124.018C110.413 125.213 109.417 127.277 109.15 127.457C108.548 127.844 103.065 128.739 99.163 129.082C95.4415 129.409 94.6508 129.435 87.4313 129.435C80.2117 129.435 79.421 129.409 75.6995 129.082C73.8774 128.919 71.2818 128.592 69.5973 128.317C68.1018 128.068 65.9875 127.612 65.764 127.491C65.532 127.371 64.5264 125.256 64.1483 124.103C63.0567 120.758 62.7817 116.192 63.4177 112.15C63.7185 110.224 64.3631 108.031 65.0679 106.5L65.4031 105.778L66.8727 105.417C72.1671 104.11 78.6303 103.259 85.3255 103.001C87.139 102.932 88.2391 102.94 91.1269 103.087Z" fill="#274799"/>
<path d="M115.794 126.975C115.167 128.575 114.213 130.51 113.405 131.791C109.357 138.266 103.297 142.902 96.0262 145.06C93.8861 145.696 90.8436 146.221 89.1075 146.256L88.334 146.272L88.2824 143.916C88.248 142.618 88.2223 139.195 88.2137 136.306L88.2051 131.051L91.5398 131C95.0808 130.94 96.4645 130.871 99.5501 130.596C106.082 130.003 111.643 128.739 114.72 127.156C115.33 126.838 115.863 126.572 115.897 126.562C115.931 126.562 115.889 126.743 115.794 126.975Z" fill="white"/>
<path d="M62.8505 128.248C66.2627 129.374 70.3365 130.139 75.3129 130.595C78.4069 130.87 79.7906 130.939 83.3833 130.999L86.7695 131.05L86.718 138.575C86.6836 143.477 86.8147 146.202 86.7545 146.262C86.5396 146.477 84.0107 146.186 81.587 145.73C72.5625 144.036 64.4663 137.93 60.3581 129.735C59.851 128.72 58.9829 126.751 58.9829 126.613C58.9829 126.587 59.4986 126.837 60.126 127.155C60.8566 127.525 61.8277 127.912 62.8505 128.248Z" fill="white"/>
<path d="M86.7523 85.5427C86.8383 85.6888 86.7796 87.9236 86.7523 87.9763C86.6061 88.2594 86.443 88.2257 86.039 88.3718C85.2397 88.6643 84.535 89.12 84.0794 89.6359C83.6411 90.1348 83.23 90.8172 83.0481 91.6998C82.8606 92.6095 82.9793 93.4627 83.2028 94.0732C83.6325 95.2772 84.7155 96.3005 85.996 96.7219L86.6664 96.9368L86.6578 99.0781C86.6578 100.316 86.6148 101.262 86.5718 101.314C86.5117 101.383 85.9273 101.434 84.8787 101.477C75.2441 101.839 65.5751 103.627 59.8166 106.121C59.1205 106.422 58.5532 106.637 58.5532 106.603C58.5532 106.353 59.4557 104.169 60.0573 102.948C62.5841 97.857 66.5033 93.2993 70.8006 90.4787C75.0206 87.7097 79.7391 86.0242 84.767 85.4997C86.0648 85.3621 86.6406 85.3707 86.7523 85.5427Z" fill="white"/>
<path d="M89.9326 85.4913C96.9974 86.1878 103.581 89.2234 108.368 94.0047C111.024 96.6532 113.216 99.6803 114.849 102.948C115.493 104.238 116.413 106.491 116.344 106.611C116.327 106.646 115.742 106.422 115.046 106.121C109.288 103.627 99.6188 101.839 89.9842 101.478C88.9356 101.435 88.3512 101.383 88.3254 101.323C88.3082 101.271 88.2824 100.256 88.2738 99.0697L88.248 96.9112L88.8583 96.7306C90.0873 96.3695 91.3679 95.1484 91.7633 93.9531C92.5196 91.6914 91.196 89.1804 88.8153 88.3635C88.3856 88.2259 88.2051 88.1141 88.1707 87.9851C88.1449 87.8905 88.1191 87.3057 88.1191 86.678C88.1191 85.689 88.1363 85.5342 88.2738 85.4568C88.4629 85.3451 88.3941 85.3451 89.9326 85.4913Z" fill="white"/>
<path d="M108.806 53.6654C109.313 54.0954 109.734 55.2735 110.01 57.0708C110.216 58.4123 110.207 62.5228 110.001 64.8533C109.477 70.6837 108.23 77.4428 106.417 84.2448C105.781 86.6269 105.016 89.1465 104.93 89.1465C104.887 89.1465 103.873 88.5789 102.678 87.891C101.475 87.203 100.169 86.4893 99.7819 86.3087C98.8708 85.8959 97.1949 85.294 96.3698 85.0962C96.0174 85.0102 95.5705 84.8898 95.3814 84.8124C95.1924 84.7436 94.9689 84.6834 94.8829 84.6748C94.7712 84.6748 94.7455 84.6232 94.7798 84.477C94.8056 84.3738 94.9603 83.6859 95.1236 82.9549C96.6018 76.471 99.017 68.8949 101.286 63.6063C103.151 59.2809 104.982 56.1249 106.554 54.534C107.577 53.4935 108.282 53.2269 108.806 53.6654Z" fill="white"/>
<path d="M67.2252 53.6486C67.7237 53.8808 68.9184 55.0847 69.5716 56.0049C73.1212 60.9925 77.2639 71.931 79.8251 83.0241C80.1688 84.5377 80.186 84.6752 79.9798 84.6752C79.8938 84.6838 79.6704 84.744 79.4812 84.8128C79.2922 84.8902 78.8453 85.0105 78.4929 85.0965C77.6678 85.2943 75.9918 85.8963 75.0808 86.3091C74.694 86.4897 73.3791 87.212 72.1758 87.9C70.9639 88.5965 69.9583 89.1469 69.9411 89.1297C69.8724 89.0695 69.0473 86.2403 68.5832 84.5032C66.7268 77.5807 65.4805 70.8389 64.9477 64.9397C64.7414 62.6006 64.7328 58.3267 64.939 56.9852C65.1282 55.7641 65.3688 54.8697 65.661 54.2592C66.065 53.4422 66.4689 53.2874 67.2252 53.6486Z" fill="white"/>
<path d="M63.1514 107.136C62.7904 108.047 62.3693 109.475 62.12 110.687L61.9223 111.633L61.6215 111.624C61.0113 111.607 59.5072 110.747 58.4157 109.801C57.9172 109.371 57.8313 109.225 57.9086 108.898C58.0032 108.546 59.6533 107.755 62.6787 106.62C63.4693 106.319 63.478 106.327 63.1514 107.136Z" fill="#3F87BE"/>
<path d="M61.759 120.508C61.7848 120.594 61.8278 120.852 61.8622 121.092C62.034 122.425 62.6013 124.481 63.2115 125.977C63.4006 126.441 63.5381 126.845 63.5123 126.862C63.4608 126.914 62.0083 126.372 61.166 125.994C60.2979 125.598 59.2322 124.893 58.811 124.437C58.4071 123.991 58.0891 123.337 58.1664 123.053C58.2266 122.795 59.0689 121.901 59.7049 121.411C60.2807 120.963 61.3551 120.37 61.5785 120.361C61.6559 120.361 61.7418 120.43 61.759 120.508Z" fill="#3F87BE"/>
<path d="M113.972 120.654C114.943 121.153 116.249 122.245 116.653 122.907C116.825 123.182 116.825 123.182 116.653 123.578C116.198 124.652 114.711 125.667 112.236 126.587C111.771 126.768 111.376 126.888 111.359 126.871C111.342 126.854 111.436 126.587 111.574 126.287C112.175 124.962 112.82 122.761 113.043 121.264C113.164 120.43 113.19 120.361 113.301 120.361C113.353 120.361 113.654 120.49 113.972 120.654Z" fill="#3F87BE"/>
<path d="M112.666 106.81C115.012 107.661 116.877 108.564 117.006 108.899C117.109 109.174 117.049 109.286 116.49 109.768C115.442 110.679 113.998 111.531 113.293 111.642L113.001 111.694L112.837 110.843C112.64 109.802 112.107 107.97 111.763 107.128C111.617 106.775 111.497 106.483 111.497 106.466C111.497 106.397 111.677 106.448 112.666 106.81Z" fill="#3F87BE"/>
<path d="M87.364 102.951C76.8592 102.951 68.8572 104.199 65.7485 104.934C65.3864 105.019 65.0857 105.267 64.9314 105.606C61.4442 113.264 62.5264 122.64 65.6699 127.524C65.4547 121.386 61.6809 107.829 87.364 107.885C113.047 107.941 108.552 123.447 109.212 127.524C114.032 119.413 111.255 108.343 109.605 105.532C109.463 105.289 109.226 105.136 108.953 105.069C105.973 104.331 98.0419 102.951 87.364 102.951Z" fill="#46ABEE"/>
<path d="M87.4527 129.847C98.6624 129.847 106.651 128.465 109.245 127.775C109.588 123.976 109.451 115.551 106.15 112.237C102.024 108.093 90.7193 107.402 87.4527 107.402H87.3675C83.9735 107.402 69.4227 108.209 67.0872 111.756C64.7517 115.303 65.0448 124.221 65.6609 127.775C68.2541 128.465 76.243 129.847 87.4527 129.847Z" fill="#274799"/>
<path d="M87.4327 129.588C98.7057 129.588 106.74 128.205 109.348 127.513C113.151 119.871 111.855 111.91 110.731 108.885C110.947 114.936 108.731 120.881 87.4327 120.943C66.1342 121.005 64.5814 112.904 63.9186 108.885C61.3597 118.912 63.9186 125.482 65.5179 127.513C68.1257 128.205 76.1597 129.588 87.4327 129.588Z" fill="#4272FA" fill-opacity="0.5"/>
<path d="M103.894 115.851C103.894 118.522 101.729 120.688 99.0592 120.688C96.3892 120.688 94.2246 118.522 94.2246 115.851C94.2246 113.179 96.3892 111.014 99.0592 111.014C101.729 111.014 103.894 113.179 103.894 115.851Z" fill="#8FFFB4"/>
<path d="M80.688 115.851C80.688 118.522 78.5235 120.688 75.8535 120.688C73.1835 120.688 71.019 118.522 71.019 115.851C71.019 113.179 73.1835 111.014 75.8535 111.014C78.5235 111.014 80.688 113.179 80.688 115.851Z" fill="#8FFFB4"/>
<path d="M76.8713 75.9148L78.9478 85.1489C76.1679 85.9697 71.7438 88.2865 69.8792 89.3422C68.2858 87.879 66.1077 74.4576 65.2178 67.9297C68.8791 72.0695 74.5124 74.978 76.8713 75.9148Z" fill="url(#paint11_radial_6330_16039)"/>
<path d="M106.408 81.6048C105.632 85.2269 104.546 87.886 104.1 88.7627L93.9023 84.6664L94.8252 81.2168C97.0033 81.9757 103.454 81.7917 106.408 81.6048Z" fill="url(#paint12_radial_6330_16039)"/>
<path fill-rule="evenodd" clip-rule="evenodd" d="M110.303 127.881C112.781 122.091 113.257 112.403 110.494 105.388C93.248 101.156 82.5765 100.822 64.5684 105.388C61.7725 111.956 61.2872 121.473 64.759 127.88C76.5737 130.775 100.775 130.821 110.303 127.881ZM108.392 107.128C110.899 113.001 110.467 121.113 108.219 125.96C99.5739 128.422 77.614 128.384 66.8936 125.96C63.7434 120.595 64.1837 112.627 66.7207 107.128C83.0608 103.305 92.7438 103.585 108.392 107.128Z" fill="#2850C2" fill-opacity="0.75"/>
<path fill-rule="evenodd" clip-rule="evenodd" d="M65.6267 52.1602C64.561 52.6503 63.8304 54.1896 63.4781 56.6748C63.2632 58.1453 63.2632 63.0728 63.4781 65.3258C63.8906 69.6255 64.6297 74.2004 65.6955 79.0419C66.4862 82.6192 68.3083 89.4471 68.5318 89.7051C68.6865 89.8599 68.6005 89.9974 68.1621 90.3242C67.9129 90.5048 67.3628 90.9434 66.9331 91.296C66.512 91.6571 66.0736 92.0097 65.9705 92.0785C65.601 92.3279 63.0827 95.0367 62.378 95.9396C60.1347 98.7946 58.6221 101.572 57.0664 105.666C56.0351 108.366 55.9491 108.641 56.0179 109.002C56.1038 109.441 56.2413 109.673 56.7914 110.283C57.7798 111.367 60.1004 112.855 61.2606 113.147L61.6732 113.25L61.6044 113.861C61.5701 114.196 61.5271 115.417 61.5185 116.578C61.5013 118.264 61.4755 118.693 61.381 118.745C61.3122 118.78 60.9598 118.943 60.5817 119.115C59.1463 119.751 57.5735 121.067 56.9031 122.168C56.4906 122.856 56.3273 123.707 56.482 124.343C56.8859 125.943 57.6767 128.084 58.5447 129.864C61.4755 135.91 65.6955 140.441 71.5828 143.846C73.912 145.188 76.7654 146.349 79.4212 147.011C82.5668 147.811 84.1139 148 87.4315 148C89.5801 148 90.1817 147.966 91.385 147.803C96.4129 147.123 100.77 145.523 104.93 142.84C106.048 142.118 108.273 140.407 109.176 139.573C113.172 135.892 116.164 131.274 117.9 126.123C118.501 124.343 118.579 123.956 118.458 123.329C118.175 121.832 116.301 119.983 114.092 119.02L113.439 118.737L113.43 116.69C113.422 115.563 113.387 114.325 113.344 113.938L113.276 113.242L113.654 113.138C114.599 112.88 116.456 111.771 117.547 110.808C118.183 110.249 118.785 109.475 118.888 109.097C119 108.701 118.965 108.606 117.882 105.751C116.327 101.658 114.814 98.8806 112.571 96.0256C111.849 95.1141 109.271 92.345 108.901 92.0871C108.789 92.0097 108.359 91.6571 107.93 91.296C107.509 90.9434 106.95 90.5048 106.709 90.3242C106.46 90.1436 106.254 89.963 106.254 89.9287C106.254 89.9029 106.305 89.7997 106.366 89.7051C106.52 89.4815 106.804 88.5356 107.491 86.0074C109.623 78.1131 110.861 71.6722 111.471 65.2399C111.677 62.9954 111.686 58.2313 111.471 56.7608C111.118 54.2498 110.345 52.6675 109.236 52.1688C108.746 51.9452 107.87 51.9452 107.268 52.1688C103.306 53.6651 97.5216 66.4782 93.8345 81.9054C93.5336 83.1523 93.2672 84.1928 93.2414 84.2186C93.2157 84.2444 92.8977 84.2186 92.5367 84.1585C91.2131 83.9521 87.5947 83.8489 85.1968 83.9521C83.9678 84.0123 82.6872 84.1069 82.352 84.1585C82.0168 84.2186 81.716 84.2273 81.673 84.1928C81.6386 84.1499 81.4238 83.3243 81.2003 82.3526C79.8509 76.5136 77.7624 69.8233 75.7426 64.8099C72.8205 57.5864 69.8897 53.0373 67.5949 52.1688C67.0019 51.9452 66.1166 51.9452 65.6267 52.1602ZM69.5717 56.0041C68.9185 55.084 67.7238 53.8801 67.2253 53.6479C66.469 53.2867 66.0651 53.4415 65.6611 54.2584C65.3689 54.869 65.1283 55.7633 64.9391 56.9844C64.7329 58.3259 64.7415 62.5998 64.9478 64.9389C65.4806 70.8381 66.7269 77.5799 68.5833 84.5024C69.0474 86.2395 69.8725 89.0687 69.9412 89.1289C69.9584 89.1461 70.964 88.5957 72.1759 87.8992C73.3792 87.2112 74.6941 86.4889 75.0809 86.3083C75.9919 85.8955 77.6679 85.2936 78.493 85.0958C78.8454 85.0098 79.2923 84.8894 79.4813 84.812C79.6705 84.7432 79.8939 84.683 79.9799 84.6744C80.1861 84.6744 80.1689 84.5369 79.8252 83.0233C77.264 71.9302 73.1213 60.9917 69.5717 56.0041ZM110.01 57.0704C109.735 55.2731 109.314 54.095 108.806 53.6651C108.282 53.2265 107.577 53.4931 106.555 54.5336C104.982 56.1245 103.151 59.2805 101.286 63.6059C99.0171 68.8945 96.6019 76.4706 95.1237 82.9545C94.9604 83.6855 94.8057 84.3734 94.7799 84.4766C94.7456 84.6228 94.7713 84.6744 94.883 84.6744C94.969 84.683 95.1925 84.7432 95.3815 84.812C95.5706 84.8894 96.0175 85.0098 96.3699 85.0958C97.195 85.2936 98.8709 85.8955 99.782 86.3083C100.169 86.4889 101.475 87.2026 102.678 87.8906C103.873 88.5785 104.887 89.1461 104.93 89.1461C105.016 89.1461 105.781 86.6265 106.417 84.2444C108.231 77.4424 109.477 70.6833 110.001 64.8529C110.207 62.5224 110.216 58.4119 110.01 57.0704ZM86.7524 87.9766C86.7797 87.9239 86.8384 85.6891 86.7524 85.543C86.6407 85.371 86.0649 85.3624 84.7671 85.5C79.7392 86.0245 75.0207 87.71 70.8007 90.479C66.5034 93.2996 62.5842 97.8573 60.0574 102.948C59.4558 104.169 58.5533 106.353 58.5533 106.603C58.5533 106.637 59.1206 106.422 59.8167 106.121C65.5752 103.627 75.2442 101.839 84.8788 101.478C85.9274 101.435 86.5118 101.383 86.5719 101.314C86.6149 101.263 86.6579 100.317 86.6579 99.0784L86.6665 96.9371L85.9961 96.7222C84.7156 96.3008 83.6326 95.2775 83.2029 94.0735C82.9794 93.463 82.8607 92.6098 83.0482 91.7001C83.2301 90.8175 83.6412 90.1351 84.0795 89.6362C84.5351 89.1203 85.2398 88.6646 86.0391 88.3721C86.4431 88.226 86.6062 88.2597 86.7524 87.9766ZM108.368 94.0048C103.581 89.2235 96.9973 86.1879 89.9325 85.4914C88.394 85.3452 88.4628 85.3452 88.2737 85.4569C88.1362 85.5343 88.119 85.6891 88.119 86.6781C88.119 87.3058 88.1448 87.8906 88.1706 87.9852C88.205 88.1142 88.3855 88.226 88.8152 88.3636C91.1959 89.1805 92.5195 91.6915 91.7632 93.9532C91.3678 95.1485 90.0872 96.3696 88.8582 96.7307L88.2479 96.9113L88.2737 99.0698C88.2823 100.257 88.3081 101.271 88.3253 101.323C88.3511 101.383 88.9355 101.435 89.9841 101.478C99.6187 101.839 109.288 103.627 115.046 106.121C115.742 106.422 116.327 106.646 116.344 106.611C116.413 106.491 115.493 104.238 114.848 102.948C113.215 99.6804 111.024 96.6533 108.368 94.0048ZM107.182 105.227C102.592 104.135 96.7051 103.352 91.1271 103.086C88.2393 102.94 87.1392 102.931 85.3257 103C78.6305 103.258 72.1673 104.109 66.8729 105.416L65.4032 105.777L65.0681 106.5C64.3633 108.03 63.7187 110.223 63.4179 112.149C62.7819 116.191 63.0569 120.757 64.1485 124.103C64.5266 125.255 65.5322 127.371 65.7642 127.491C65.9877 127.611 68.102 128.067 69.5975 128.316C71.282 128.591 73.8776 128.918 75.6997 129.082C79.4212 129.409 80.2119 129.434 87.4315 129.434C94.651 129.434 95.4417 129.409 99.1632 129.082C103.065 128.738 108.549 127.843 109.15 127.456C109.417 127.276 110.414 125.212 110.8 124.017C111.514 121.832 111.849 119.442 111.849 116.621C111.849 114.256 111.668 112.554 111.187 110.473C110.912 109.269 110.276 107.42 109.838 106.517C109.425 105.674 109.735 105.829 107.182 105.227ZM62.1201 110.688C62.3694 109.475 62.7905 108.048 63.1515 107.136C63.4781 106.328 63.4694 106.319 62.6788 106.62C59.6534 107.755 58.0033 108.546 57.9087 108.899C57.8314 109.226 57.9173 109.372 58.4158 109.802C59.5073 110.748 61.0114 111.608 61.6216 111.625L61.9224 111.633L62.1201 110.688ZM117.006 108.899C116.877 108.563 115.012 107.661 112.666 106.809C111.677 106.448 111.496 106.396 111.496 106.465C111.496 106.482 111.617 106.775 111.763 107.127C112.107 107.97 112.64 109.802 112.837 110.842L113.001 111.694L113.293 111.642C113.998 111.53 115.442 110.679 116.49 109.767C117.049 109.286 117.109 109.174 117.006 108.899ZM61.8623 121.093C61.8279 120.852 61.7849 120.594 61.7591 120.508C61.742 120.431 61.656 120.362 61.5786 120.362C61.3552 120.37 60.2808 120.964 59.705 121.411C59.069 121.901 58.2267 122.795 58.1666 123.053C58.0892 123.337 58.4072 123.991 58.8112 124.438C59.2323 124.894 60.298 125.599 61.1661 125.994C62.0084 126.373 63.4609 126.914 63.5124 126.863C63.5382 126.845 63.4007 126.442 63.2116 125.977C62.6014 124.481 62.0342 122.426 61.8623 121.093ZM116.653 122.908C116.249 122.245 114.943 121.153 113.972 120.654C113.654 120.491 113.353 120.362 113.301 120.362C113.19 120.362 113.164 120.431 113.044 121.265C112.82 122.761 112.175 124.962 111.574 126.287C111.436 126.588 111.342 126.855 111.359 126.871C111.376 126.889 111.772 126.768 112.236 126.588C114.711 125.668 116.198 124.653 116.653 123.578C116.825 123.182 116.825 123.182 116.653 122.908ZM75.313 130.595C70.3366 130.139 66.2628 129.374 62.8506 128.248C61.8279 127.912 60.8567 127.525 60.1261 127.155C59.4987 126.837 58.9831 126.588 58.9831 126.613C58.9831 126.751 59.8511 128.72 60.3582 129.735C64.4665 137.93 72.5626 144.036 81.5871 145.73C83.7381 146.134 86.1124 146.247 86.6194 146.268C86.674 146.27 86.7175 146.228 86.7169 146.173C86.7113 145.639 86.6875 142.944 86.7181 138.575L86.7696 131.051L83.3834 130.999C79.7907 130.939 78.407 130.87 75.313 130.595ZM113.405 131.79C114.212 130.509 115.166 128.574 115.794 126.975C115.888 126.742 115.931 126.562 115.897 126.562C115.863 126.571 115.33 126.837 114.72 127.155C111.643 128.738 106.082 130.002 99.55 130.595C96.4644 130.87 95.0807 130.939 91.5397 130.999L88.205 131.051L88.2136 136.305C88.2222 139.194 88.2479 142.617 88.2823 143.915L88.3318 146.175C88.333 146.229 88.3768 146.271 88.4298 146.269L89.1074 146.255C90.8435 146.22 93.886 145.696 96.0261 145.059C103.297 142.901 109.356 138.266 113.405 131.79Z" fill="#1A3A96"/>
<path d="M115.232 127.356C114.605 128.956 113.651 130.89 112.843 132.172C108.795 138.647 103.511 141.911 96.2402 144.069C94.1001 144.705 91.0576 145.23 89.3215 145.264L88.5479 145.281L88.4964 142.925C88.462 141.627 88.2472 139.226 88.2385 136.336L88.23 131.082L91.5647 131.03C95.1057 130.97 95.9028 131.252 98.9884 130.976C105.52 130.383 111.081 129.119 114.158 127.537C114.768 127.219 115.301 126.952 115.335 126.943C115.37 126.943 115.327 127.124 115.232 127.356Z" fill="url(#paint13_radial_6330_16039)"/>
<path d="M63.2172 128.423C66.6293 129.549 70.31 130.171 75.2863 130.627C78.3804 130.902 79.7642 130.971 83.3567 131.031L86.743 131.082L86.6914 138.607C86.6571 143.509 86.4844 145.174 86.4242 145.234C86.364 145.294 84.1732 145.196 81.7495 144.74C72.7251 143.046 64.833 138.106 60.7248 129.911C60.2177 128.896 59.3496 126.926 59.3496 126.789C59.3496 126.763 59.8653 127.013 60.4927 127.331C61.2232 127.7 62.1944 128.087 63.2172 128.423Z" fill="url(#paint14_radial_6330_16039)"/>
<path d="M86.7689 85.5383C86.8549 85.6844 86.7962 87.8289 86.7689 87.8816C86.6226 88.1647 86.4595 88.131 86.0556 88.2772C85.2563 88.5696 84.5515 89.0253 84.096 89.5413C83.6577 90.04 83.2466 90.7226 83.0647 91.6052C82.8772 92.5149 82.9959 93.368 83.2194 93.9786C83.6491 95.1825 84.891 96.2901 86.1716 96.7114L86.842 96.9264L86.8334 99.0677C86.8334 100.306 86.7905 101.252 86.7475 101.304C86.6873 101.372 86.1029 101.424 85.0543 101.467C75.4197 101.828 67.8886 102.395 62.1301 104.889C61.4339 105.19 60.8667 105.405 60.8667 105.371C60.8667 105.121 61.7691 102.937 62.3708 101.716C64.8976 96.625 69.4507 92.4462 73.748 89.6255C77.968 86.8566 81.2576 85.8799 84.9426 85.4893C86.2404 85.3517 86.6572 85.3663 86.7689 85.5383Z" fill="url(#paint15_radial_6330_16039)"/>
<path d="M89.9575 85.5226C99.9939 86.4763 103.262 90.5787 105.28 92.148C107.297 93.7174 111.21 97.9741 112.843 101.242C113.488 102.532 114.407 104.785 114.338 104.905C114.321 104.94 113.737 104.716 113.041 104.415C107.282 101.921 99.6437 101.87 90.0091 101.509C88.9605 101.466 88.3585 101.376 88.3327 101.315C88.3155 101.264 88.3073 100.288 88.2987 99.101L88.2643 97.149L88.8746 96.9684C90.1036 96.6072 91.4778 95.9855 92.1298 94.036C92.9229 91.6643 91.9979 89.2917 88.9068 88.3019C88.477 88.1644 88.2965 88.0526 88.2622 87.9236C88.2364 87.829 88.144 87.3371 88.144 86.7093C88.144 85.7204 88.1612 85.5656 88.2987 85.4883C88.4878 85.3764 88.419 85.3764 89.9575 85.5226Z" fill="url(#paint16_radial_6330_16039)"/>
<path d="M90.4537 92.375C90.4537 93.9779 89.0584 95.2774 87.4563 95.2774C85.8543 95.2774 84.3945 93.9779 84.3945 92.375C84.3945 90.7721 85.8543 89.3438 87.4563 89.3438C89.0584 89.3438 90.4537 90.7721 90.4537 92.375Z" fill="#8FFFB4"/>
<path d="M83.2903 94.2458C65.512 94.1097 62.4461 97.8556 59.3843 106.111C66.2815 103.241 80.366 101.263 86.683 101.263V97.0527C84.6813 96.8485 83.5872 95.0963 83.2903 94.2458Z" fill="white"/>
<path d="M91.9045 94.2441C103.563 95.7884 110.05 97.9526 115.884 106.079C108.986 103.209 94.8287 101.261 88.5117 101.261V97.051C90.5134 96.8468 91.6076 95.0947 91.9045 94.2441Z" fill="white"/>
</g>
<defs>
<linearGradient id="paint0_linear_6330_16039" x1="178.59" y1="180.174" x2="251.504" y2="62.4101" gradientUnits="userSpaceOnUse">
<stop stop-color="#4272FA"/>
<stop offset="0.531251" stop-color="#5E90E5"/>
<stop offset="1" stop-color="#74E99A"/>
</linearGradient>
<linearGradient id="paint1_linear_6330_16039" x1="178.59" y1="180.173" x2="251.504" y2="62.4088" gradientUnits="userSpaceOnUse">
<stop stop-color="#4272FA"/>
<stop offset="0.531251" stop-color="#5E90E5"/>
<stop offset="1" stop-color="#74E99A"/>
</linearGradient>
<linearGradient id="paint2_linear_6330_16039" x1="178.59" y1="180.173" x2="251.504" y2="62.409" gradientUnits="userSpaceOnUse">
<stop stop-color="#4272FA"/>
<stop offset="0.531251" stop-color="#5E90E5"/>
<stop offset="1" stop-color="#74E99A"/>
</linearGradient>
<linearGradient id="paint3_linear_6330_16039" x1="178.59" y1="180.172" x2="251.504" y2="62.4084" gradientUnits="userSpaceOnUse">
<stop stop-color="#4272FA"/>
<stop offset="0.531251" stop-color="#5E90E5"/>
<stop offset="1" stop-color="#74E99A"/>
</linearGradient>
<linearGradient id="paint4_linear_6330_16039" x1="178.59" y1="180.173" x2="251.504" y2="62.409" gradientUnits="userSpaceOnUse">
<stop stop-color="#4272FA"/>
<stop offset="0.531251" stop-color="#5E90E5"/>
<stop offset="1" stop-color="#74E99A"/>
</linearGradient>
<linearGradient id="paint5_linear_6330_16039" x1="178.59" y1="180.173" x2="251.504" y2="62.409" gradientUnits="userSpaceOnUse">
<stop stop-color="#4272FA"/>
<stop offset="0.531251" stop-color="#5E90E5"/>
<stop offset="1" stop-color="#74E99A"/>
</linearGradient>
<linearGradient id="paint6_linear_6330_16039" x1="178.59" y1="180.173" x2="251.504" y2="62.409" gradientUnits="userSpaceOnUse">
<stop stop-color="#4272FA"/>
<stop offset="0.531251" stop-color="#5E90E5"/>
<stop offset="1" stop-color="#74E99A"/>
</linearGradient>
<linearGradient id="paint7_linear_6330_16039" x1="178.59" y1="180.173" x2="251.504" y2="62.4091" gradientUnits="userSpaceOnUse">
<stop stop-color="#4272FA"/>
<stop offset="0.531251" stop-color="#5E90E5"/>
<stop offset="1" stop-color="#74E99A"/>
</linearGradient>
<linearGradient id="paint8_linear_6330_16039" x1="178.59" y1="180.172" x2="251.504" y2="62.4084" gradientUnits="userSpaceOnUse">
<stop stop-color="#4272FA"/>
<stop offset="0.531251" stop-color="#5E90E5"/>
<stop offset="1" stop-color="#74E99A"/>
</linearGradient>
<linearGradient id="paint9_linear_6330_16039" x1="178.59" y1="180.174" x2="251.504" y2="62.4099" gradientUnits="userSpaceOnUse">
<stop stop-color="#4272FA"/>
<stop offset="0.531251" stop-color="#5E90E5"/>
<stop offset="1" stop-color="#74E99A"/>
</linearGradient>
<linearGradient id="paint10_linear_6330_16039" x1="178.59" y1="180.173" x2="251.504" y2="62.4094" gradientUnits="userSpaceOnUse">
<stop stop-color="#4272FA"/>
<stop offset="0.531251" stop-color="#5E90E5"/>
<stop offset="1" stop-color="#74E99A"/>
</linearGradient>
<radialGradient id="paint11_radial_6330_16039" cx="0" cy="0" r="1" gradientUnits="userSpaceOnUse" gradientTransform="translate(182.143 -131.326) rotate(108.602) scale(296.449 269.057)">
<stop offset="0.750891" stop-color="white"/>
<stop offset="1" stop-color="#63ACCF"/>
</radialGradient>
<radialGradient id="paint12_radial_6330_16039" cx="0" cy="0" r="1" gradientUnits="userSpaceOnUse" gradientTransform="translate(187.376 -213.026) rotate(105.386) scale(376.142 304.087)">
<stop offset="0.658193" stop-color="white"/>
<stop offset="1" stop-color="#63ACCF"/>
</radialGradient>
<radialGradient id="paint13_radial_6330_16039" cx="0" cy="0" r="1" gradientUnits="userSpaceOnUse" gradientTransform="translate(54.2489 -6.04422) rotate(90) scale(159.393 90.8444)">
<stop offset="0.750891" stop-color="white"/>
<stop offset="1" stop-color="#63ACCF"/>
</radialGradient>
<radialGradient id="paint14_radial_6330_16039" cx="0" cy="0" r="1" gradientUnits="userSpaceOnUse" gradientTransform="translate(120.613 -4.83716) rotate(90) scale(158.316 89.9286)">
<stop offset="0.750891" stop-color="white"/>
<stop offset="1" stop-color="#63ACCF"/>
</radialGradient>
<radialGradient id="paint15_radial_6330_16039" cx="0" cy="0" r="1" gradientUnits="userSpaceOnUse" gradientTransform="translate(120.466 198.373) rotate(90) scale(146.31 94.8381)">
<stop offset="0.750891" stop-color="white"/>
<stop offset="1" stop-color="#63ACCF"/>
</radialGradient>
<radialGradient id="paint16_radial_6330_16039" cx="0" cy="0" r="1" gradientUnits="userSpaceOnUse" gradientTransform="translate(54.3939 201.892) rotate(90) scale(149.891 94.0318)">
<stop offset="0.750891" stop-color="white"/>
<stop offset="1" stop-color="#63ACCF"/>
</radialGradient>
</defs>
</svg>
