<svg width="260" height="96" viewBox="0 0 260 96" fill="none" xmlns="http://www.w3.org/2000/svg">
<g clip-path="url(#clip0_5883_36341)">
<mask id="mask0_5883_36341" style="mask-type:luminance" maskUnits="userSpaceOnUse" x="0" y="0" width="260" height="96">
<path d="M260 0H0V96H260V0Z" fill="white"/>
</mask>
<g mask="url(#mask0_5883_36341)">
<path d="M85.9676 50.4375C87.7438 50.4375 89.3369 50.921 90.7468 51.8879C92.1566 52.8548 93.2002 54.1218 93.8774 55.6888L90.83 57.0225C90.4193 56.0556 89.7754 55.2721 88.8983 54.6719C88.0324 54.0718 87.0555 53.7717 85.9676 53.7717C84.5133 53.7717 83.2699 54.2885 82.2375 55.3221C81.2161 56.3446 80.7054 57.5838 80.7054 59.0397V64.2577L86.0841 64.241V67.5752L80.7054 67.5918V74.3602H77.375V58.9563C77.4083 57.3781 77.8079 55.95 78.574 54.6719C79.34 53.3827 80.3668 52.3547 81.6546 51.5878C82.9535 50.8209 84.3911 50.4375 85.9676 50.4375Z" fill="url(#paint0_linear_5883_36341)"/>
<path d="M97.4512 74.4255V57.2712H100.781V74.4255H97.4512ZM97.4512 53.6869V50.5195H100.781V53.6869H97.4512Z" fill="url(#paint1_linear_5883_36341)"/>
<path d="M107.668 65.7903C107.668 67.2462 108.179 68.491 109.2 69.5245C110.233 70.547 111.476 71.0583 112.931 71.0583V74.3924C111.343 74.3924 109.9 74.009 108.601 73.2422C107.302 72.4642 106.264 71.425 105.487 70.1247C104.721 68.8133 104.338 67.3685 104.338 65.7903H107.668ZM107.668 50.4531V65.7903H104.338V50.4531H107.668Z" fill="url(#paint2_linear_5883_36341)"/>
<path d="M124.247 57.1875C125.824 57.1875 127.262 57.5765 128.56 58.3545C129.87 59.1213 130.903 60.1494 131.658 61.4386C132.424 62.7278 132.818 64.1726 132.84 65.773V67.3734H132.574V67.3901H124.114V64.0559H129.226C128.849 63.0112 128.211 62.161 127.311 61.5053C126.423 60.8495 125.402 60.5217 124.247 60.5217C122.804 60.5217 121.566 61.0385 120.534 62.0721C119.502 63.0946 118.985 64.3338 118.985 65.7897C118.985 66.801 119.252 67.7013 119.785 68.4904C120.329 69.2795 121 69.9018 121.8 70.3575C122.61 70.8021 123.443 71.0354 124.297 71.0577L124.214 74.3918C122.06 74.314 120.129 73.5138 118.419 71.9912C116.576 70.2241 115.655 68.1569 115.655 65.7897C115.655 64.2115 116.043 62.7723 116.821 61.4719C117.598 60.1605 118.636 59.1213 119.935 58.3545C121.233 57.5765 122.671 57.1875 124.247 57.1875Z" fill="url(#paint3_linear_5883_36341)"/>
<path d="M170.994 65.7903V57.2715H174.324V65.7903C174.324 67.3685 173.936 68.8133 173.158 70.1247C172.381 71.425 171.343 72.4642 170.045 73.2422C168.746 74.009 167.308 74.3924 165.732 74.3924C164.144 74.3924 162.701 74.009 161.402 73.2422C160.103 72.4642 159.065 71.425 158.288 70.1247C157.522 68.8133 157.139 67.3685 157.139 65.7903V57.2715H160.469V65.7903C160.469 67.2462 160.98 68.491 162.001 69.5245C163.034 70.547 164.277 71.0583 165.732 71.0583C167.175 71.0583 168.413 70.547 169.445 69.5245C170.477 68.491 170.994 67.2462 170.994 65.7903Z" fill="url(#paint4_linear_5883_36341)"/>
<path d="M186.474 57.2715C188.061 57.2715 189.504 57.6604 190.803 58.4384C192.102 59.2164 193.135 60.2555 193.901 61.5559C194.678 62.8562 195.066 64.2955 195.066 65.8736V74.3924H191.736V65.8736C191.736 64.4288 191.22 63.1896 190.187 62.156C189.166 61.1224 187.928 60.6056 186.474 60.6056C185.03 60.6056 183.793 61.1224 182.76 62.156C181.728 63.1896 181.212 64.4288 181.212 65.8736V74.3924H177.881V65.8736C177.881 64.2955 178.27 62.8562 179.047 61.5559C179.824 60.2555 180.862 59.2164 182.161 58.4384C183.46 57.6604 184.897 57.2715 186.474 57.2715Z" fill="url(#paint5_linear_5883_36341)"/>
<path d="M207.216 57.2715C208.803 57.2715 210.246 57.6604 211.545 58.4384C212.844 59.2164 213.877 60.2555 214.643 61.5559C215.42 62.8562 215.808 64.2955 215.808 65.8736V74.3924H212.478V65.8736C212.478 64.4288 211.962 63.1896 210.929 62.156C209.908 61.1224 208.67 60.6056 207.216 60.6056C205.772 60.6056 204.535 61.1224 203.502 62.156C202.47 63.1896 201.954 64.4288 201.954 65.8736V74.3924H198.623V65.8736C198.623 64.2955 199.012 62.8562 199.789 61.5559C200.566 60.2555 201.604 59.2164 202.903 58.4384C204.202 57.6604 205.639 57.2715 207.216 57.2715Z" fill="url(#paint6_linear_5883_36341)"/>
<path d="M219.365 74.4255V57.2712H222.696V74.4255H219.365ZM219.365 53.6869V50.5195H222.696V53.6869H219.365Z" fill="url(#paint7_linear_5883_36341)"/>
<path d="M234.845 57.1875C236.422 57.1875 237.859 57.5765 239.158 58.3545C240.468 59.1213 241.5 60.1494 242.255 61.4386C243.021 62.7278 243.415 64.1726 243.438 65.773V67.3734H243.171V67.3901H234.712V64.0559H239.824C239.447 63.0112 238.808 62.161 237.909 61.5053C237.021 60.8495 236 60.5217 234.845 60.5217C233.402 60.5217 232.164 61.0385 231.132 62.0721C230.099 63.0946 229.583 64.3338 229.583 65.7897C229.583 66.801 229.849 67.7013 230.382 68.4904C230.926 69.2795 231.598 69.9018 232.397 70.3575C233.208 70.8021 234.04 71.0354 234.895 71.0577L234.812 74.3918C232.658 74.314 230.726 73.5138 229.017 71.9912C227.174 70.2241 226.253 68.1569 226.253 65.7897C226.253 64.2115 226.641 62.7723 227.418 61.4719C228.195 60.1605 229.233 59.1213 230.532 58.3545C231.831 57.5765 233.269 57.1875 234.845 57.1875Z" fill="url(#paint8_linear_5883_36341)"/>
<path d="M257.819 64.5577C259.273 65.7358 260 67.1195 260 68.7088C260 69.7535 259.706 70.7037 259.117 71.5595C258.54 72.4153 257.758 73.0988 256.769 73.61C255.781 74.1213 254.688 74.3769 253.489 74.3769C252.301 74.3769 251.213 74.1213 250.225 73.61C249.237 73.0988 248.449 72.4153 247.861 71.5595C247.283 70.7037 246.995 69.7535 246.995 68.7088H250.258C250.258 69.4201 250.575 70.0313 251.208 70.5426C251.84 71.0427 252.601 71.2928 253.489 71.2928C254.388 71.2928 255.154 71.0427 255.787 70.5426C256.42 70.0313 256.736 69.4201 256.736 68.7088C256.736 68.2198 256.57 67.7863 256.237 67.4085C255.904 67.0195 255.487 66.7138 254.988 66.4916C254.499 66.2693 253.989 66.1526 253.456 66.1415C252.301 66.0526 251.269 65.6691 250.358 64.9912C249.226 64.0687 248.66 62.974 248.66 61.707C248.66 60.4845 249.154 59.4398 250.142 58.5729C251.13 57.6949 252.318 57.2559 253.705 57.2559C255.104 57.2559 256.298 57.6949 257.286 58.5729C258.274 59.4398 258.768 60.4845 258.768 61.707H255.487C255.487 61.3403 255.31 61.0235 254.954 60.7568C254.61 60.49 254.194 60.3567 253.705 60.3567C253.228 60.3567 252.812 60.49 252.457 60.7568C252.101 61.0235 251.924 61.3403 251.924 61.707C251.924 61.9737 252.024 62.2071 252.223 62.4072C252.423 62.6072 252.662 62.7628 252.939 62.874C253.217 62.9851 253.483 63.0462 253.739 63.0574C255.26 63.1574 256.62 63.6575 257.819 64.5577Z" fill="url(#paint9_linear_5883_36341)"/>
<path d="M150.919 59.5504C152.762 61.3201 153.684 63.3959 153.684 65.7778C153.684 67.3583 153.298 68.7996 152.525 70.1019C151.763 71.4041 150.737 72.4448 149.445 73.2239C148.154 74.003 146.719 74.3926 145.14 74.3926C143.584 74.3926 142.16 74.0086 140.869 73.2406C139.577 72.4615 138.551 71.4319 137.789 70.152C137.027 68.872 136.63 67.4362 136.597 65.8445V50.418H139.908C141.134 50.4625 142.237 50.7853 143.22 51.3863C144.213 51.9762 145.003 52.7721 145.588 53.7738C146.184 54.7644 146.482 55.8551 146.482 57.0461C146.482 57.1351 146.482 57.2186 146.482 57.2965C148.126 57.6193 149.605 58.3706 150.919 59.5504ZM143.17 57.0461C143.17 56.1668 142.856 55.4155 142.226 54.7922C141.608 54.1689 140.836 53.8239 139.908 53.7571V60.3518C140.836 60.285 141.608 59.9399 142.226 59.3166C142.856 58.6934 143.17 57.9365 143.17 57.0461ZM145.14 71.0535C146.586 71.0535 147.817 70.5359 148.833 69.5008C149.859 68.4657 150.373 67.2247 150.373 65.7778C150.373 64.8094 150.13 63.9468 149.644 63.19C149.169 62.4331 148.562 61.8265 147.823 61.3702C147.083 60.9027 146.305 60.6189 145.488 60.5187C144.892 61.4648 144.108 62.2216 143.137 62.7893C142.177 63.3458 141.101 63.6463 139.908 63.6908V65.7778C139.908 67.2247 140.422 68.4657 141.448 69.5008C142.475 70.5359 143.706 71.0535 145.14 71.0535Z" fill="url(#paint10_linear_5883_36341)"/>
<path fill-rule="evenodd" clip-rule="evenodd" d="M35.1274 51.0866C40.7054 51.3532 46.5928 52.1357 51.1823 53.2279C53.735 53.8298 53.4255 53.675 53.8381 54.5178C54.2764 55.4207 54.9124 57.2695 55.1874 58.4735C55.6688 60.5545 55.8492 62.2572 55.8492 64.622C55.8492 67.4424 55.514 69.8332 54.8007 72.0177C54.4139 73.2128 53.417 75.2766 53.1505 75.4572C52.5489 75.8442 47.0655 76.7387 43.1635 77.0825C39.442 77.4095 38.6513 77.4353 31.4318 77.4353C24.2122 77.4353 23.4215 77.4095 19.7 77.0825C17.8779 76.9193 15.2823 76.5923 13.5978 76.3169C12.1023 76.068 9.98801 75.612 9.76452 75.4914C9.53247 75.3714 8.52688 73.256 8.14876 72.1034C7.05719 68.7581 6.78221 64.1921 7.41818 60.1503C7.71901 58.2241 8.36361 56.0312 9.06835 54.5005L9.40354 53.7782L10.8732 53.417C16.1676 52.1099 22.6308 51.2586 29.326 51.0006C31.1395 50.9318 32.2396 50.9404 35.1274 51.0866Z" fill="#274799"/>
<path d="M59.794 74.9753C59.1666 76.5748 58.2126 78.5097 57.4047 79.7912C53.3566 86.2665 47.2973 90.9018 40.0262 93.0598C37.8861 93.6964 34.8436 94.2207 33.1075 94.2556L32.334 94.2723L32.2824 91.9163C32.248 90.618 32.2223 87.1953 32.2137 84.3059L32.2051 79.0514L35.5398 78.9998C39.0808 78.9399 40.4645 78.8708 43.5501 78.5961C50.082 78.0027 55.6428 76.7386 58.7196 75.1559C59.3299 74.838 59.8628 74.5716 59.8971 74.5625C59.9315 74.5625 59.8886 74.7431 59.794 74.9753Z" fill="white"/>
<path d="M6.85098 76.2476C10.2631 77.3737 14.3369 78.1392 19.3133 78.5952C22.4073 78.8699 23.791 78.939 27.3837 78.9989L30.7699 79.0505L30.7184 86.5752C30.684 91.4768 30.8151 94.2019 30.7549 94.2618C30.54 94.4766 28.0111 94.1856 25.5874 93.7297C16.5629 92.036 8.4668 85.9302 4.35855 77.7348C3.85146 76.7203 2.9834 74.7512 2.9834 74.6131C2.9834 74.5874 3.49908 74.8371 4.12649 75.155C4.85705 75.5252 5.82824 75.9122 6.85098 76.2476Z" fill="white"/>
<path d="M30.7528 33.5427C30.8388 33.6888 30.7801 35.9236 30.7528 35.9763C30.6066 36.2594 30.4435 36.2257 30.0395 36.3718C29.2402 36.6643 28.5355 37.12 28.0799 37.6359C27.6416 38.1348 27.2305 38.8172 27.0486 39.6998C26.8611 40.6095 26.9798 41.4627 27.2033 42.0732C27.633 43.2772 28.716 44.3005 29.9965 44.7219L30.6669 44.9368L30.6583 47.0781C30.6583 48.3164 30.6153 49.2623 30.5723 49.3139C30.5122 49.3827 29.9278 49.4343 28.8792 49.4773C19.2446 49.8385 9.57555 51.6272 3.81712 54.121C3.12096 54.4219 2.55371 54.6369 2.55371 54.6025C2.55371 54.3531 3.45615 52.1689 4.05777 50.9478C6.5846 45.857 10.5038 41.2993 14.8011 38.4787C19.0211 35.7097 23.7396 34.0242 28.7675 33.4997C30.0653 33.3621 30.6411 33.3707 30.7528 33.5427Z" fill="white"/>
<path d="M33.9326 33.4913C40.9974 34.1878 47.5809 37.2234 52.3682 42.0047C55.024 44.6532 57.2156 47.6803 58.8486 50.948C59.4932 52.2379 60.4128 54.491 60.344 54.6113C60.3268 54.6458 59.7424 54.4221 59.0463 54.1212C53.2879 51.6274 43.6188 49.8387 33.9842 49.4775C32.9356 49.4345 32.3512 49.3829 32.3254 49.3227C32.3082 49.2711 32.2824 48.2564 32.2738 47.0697L32.248 44.9112L32.8583 44.7306C34.0873 44.3695 35.3679 43.1484 35.7633 41.9531C36.5196 39.6914 35.196 37.1804 32.8153 36.3635C32.3856 36.2259 32.2051 36.1141 32.1707 35.9851C32.1449 35.8905 32.1191 35.3057 32.1191 34.678C32.1191 33.689 32.1363 33.5342 32.2738 33.4568C32.4629 33.3451 32.3941 33.3451 33.9326 33.4913Z" fill="white"/>
<path d="M52.8063 1.66544C53.3134 2.09541 53.7345 3.27352 54.0096 5.07079C54.2159 6.41229 54.2072 10.5228 54.001 12.8533C53.4767 18.6837 52.2305 25.4428 50.417 32.2448C49.781 34.6269 49.0161 37.1465 48.9301 37.1465C48.8872 37.1465 47.8729 36.5789 46.6783 35.891C45.475 35.203 44.1687 34.4893 43.7819 34.3087C42.8708 33.8959 41.1949 33.294 40.3698 33.0962C40.0174 33.0102 39.5705 32.8898 39.3814 32.8124C39.1924 32.7436 38.9689 32.6834 38.8829 32.6748C38.7712 32.6748 38.7455 32.6232 38.7798 32.477C38.8056 32.3738 38.9603 31.6859 39.1236 30.9549C40.6018 24.471 43.017 16.8949 45.286 11.6063C47.151 7.28086 48.9817 4.12486 50.5545 2.53398C51.5773 1.49345 52.2821 1.22687 52.8063 1.66544Z" fill="white"/>
<path d="M11.2257 1.64862C11.7242 1.8808 12.9189 3.08472 13.5721 4.00485C17.1217 8.99249 21.2644 19.931 23.8256 31.0241C24.1693 32.5377 24.1865 32.6752 23.9803 32.6752C23.8943 32.6838 23.6709 32.744 23.4817 32.8128C23.2927 32.8902 22.8458 33.0105 22.4934 33.0965C21.6683 33.2943 19.9923 33.8963 19.0813 34.3091C18.6945 34.4897 17.3796 35.212 16.1763 35.9C14.9644 36.5965 13.9588 37.1469 13.9416 37.1297C13.8729 37.0695 13.0478 34.2403 12.5837 32.5032C10.7273 25.5807 9.48098 18.8389 8.94815 12.9397C8.74188 10.6006 8.73324 6.32668 8.93951 4.98518C9.12864 3.76407 9.36927 2.86973 9.66147 2.25918C10.0655 1.44223 10.4694 1.28744 11.2257 1.64862Z" fill="white"/>
<path d="M7.15137 55.1356C6.7904 56.0471 6.36926 57.4746 6.12002 58.6871L5.92234 59.6331L5.62153 59.6245C5.0113 59.6073 3.50724 58.7474 2.41571 57.8014C1.91722 57.3714 1.83127 57.2253 1.90863 56.8985C2.00317 56.5459 3.65335 55.7548 6.67869 54.6197C7.46935 54.3187 7.47799 54.3272 7.15137 55.1356Z" fill="#3F87BE"/>
<path d="M5.7595 68.5077C5.78528 68.5935 5.82826 68.8515 5.86264 69.0921C6.03453 70.4252 6.60179 72.4806 7.21197 73.9769C7.4011 74.4413 7.53859 74.845 7.51281 74.8624C7.46124 74.914 6.00875 74.3723 5.16647 73.9937C4.29841 73.5983 3.23266 72.8934 2.81153 72.4374C2.40757 71.9905 2.08957 71.3365 2.16693 71.0527C2.22709 70.7947 3.06937 69.9008 3.70538 69.4107C4.28122 68.9631 5.35555 68.3697 5.57901 68.3613C5.65636 68.3613 5.74232 68.4303 5.7595 68.5077Z" fill="#3F87BE"/>
<path d="M57.9722 68.6535C58.9434 69.1527 60.2498 70.2446 60.6538 70.907C60.8257 71.1817 60.8257 71.1817 60.6538 71.5777C60.1983 72.6522 58.7114 73.6674 56.2361 74.5871C55.772 74.7676 55.3767 74.8883 55.3595 74.8708C55.3422 74.8541 55.4368 74.587 55.5743 74.2865C56.1759 72.9618 56.8206 70.7605 57.044 69.2642C57.1643 68.4303 57.1901 68.3613 57.3018 68.3613C57.3534 68.3613 57.6542 68.4903 57.9722 68.6535Z" fill="#3F87BE"/>
<path d="M56.6651 54.8095C59.0114 55.6609 60.8764 56.5638 61.0054 56.8992C61.1085 57.1744 61.0483 57.2861 60.4897 57.7677C59.4411 58.6792 57.9972 59.5306 57.2925 59.6423L57.0003 59.6939L56.8369 58.8426C56.6393 57.8021 56.1064 55.9704 55.7626 55.1277C55.6165 54.7751 55.4961 54.4827 55.4961 54.4656C55.4961 54.3967 55.6766 54.4483 56.6651 54.8095Z" fill="#3F87BE"/>
<path d="M31.3645 50.9512C20.8597 50.9512 12.8577 52.199 9.74895 52.9338C9.38694 53.0194 9.08617 53.2675 8.93192 53.6062C5.44471 61.264 6.52691 70.6397 9.67037 75.5239C9.4552 69.3865 5.68135 55.8292 31.3645 55.8851C57.0475 55.9409 52.5524 71.4472 53.2121 75.5239C58.0329 67.413 55.2559 56.3428 53.6058 53.5322C53.4633 53.2895 53.2266 53.1363 52.9534 53.0686C49.9737 52.3307 42.0424 50.9512 31.3645 50.9512Z" fill="#46ABEE"/>
<path d="M31.4522 77.8467C42.6619 77.8467 50.6507 76.4652 53.244 75.7751C53.5878 71.9763 53.4503 63.5513 50.1493 60.2365C46.023 56.0929 34.7188 55.4023 31.4522 55.4023H31.367C27.973 55.4019 13.4222 56.2085 11.0867 59.7557C8.75121 63.303 9.04434 72.2214 9.66045 75.7751C12.2536 76.4652 20.2425 77.8467 31.4522 77.8467Z" fill="#274799"/>
<path d="M31.4327 77.5878C42.7057 77.5878 50.7397 76.205 53.3475 75.5129C57.1513 67.8715 55.8546 59.9102 54.7307 56.8848C54.9468 62.9357 52.7312 68.8815 31.4327 68.9435C10.1342 69.0054 8.58136 60.9044 7.91858 56.8848C5.35969 66.9119 7.91858 73.482 9.5179 75.5129C12.1257 76.205 20.1597 77.5878 31.4327 77.5878Z" fill="#4272FA" fill-opacity="0.5"/>
<path d="M47.8937 63.8509C47.8937 66.5223 45.7292 68.688 43.0592 68.688C40.3892 68.688 38.2246 66.5223 38.2246 63.8509C38.2246 61.1794 40.3892 59.0137 43.0592 59.0137C45.7292 59.0137 47.8937 61.1794 47.8937 63.8509Z" fill="#8FFFB4"/>
<path d="M24.6885 63.8509C24.6885 66.5223 22.524 68.688 19.854 68.688C17.184 68.688 15.0195 66.5223 15.0195 63.8509C15.0195 61.1794 17.184 59.0137 19.854 59.0137C22.524 59.0137 24.6885 61.1794 24.6885 63.8509Z" fill="#8FFFB4"/>
<path d="M20.8713 23.9148L22.9478 33.1489C20.1679 33.9697 15.7438 36.2865 13.8792 37.3422C12.2858 35.879 10.1077 22.4576 9.21777 15.9297C12.8791 20.0695 18.5124 22.978 20.8713 23.9148Z" fill="url(#paint11_radial_5883_36341)"/>
<path d="M50.4076 29.6048C49.6323 33.2269 48.5464 35.886 48.1004 36.7627L37.9023 32.6664L38.8252 29.2168C41.0033 29.9757 47.4544 29.7917 50.4076 29.6048Z" fill="url(#paint12_radial_5883_36341)"/>
<path fill-rule="evenodd" clip-rule="evenodd" d="M54.3028 75.8812C56.7801 70.091 57.2565 60.4035 54.4933 53.3884C37.2475 49.1565 26.576 48.8222 8.5679 53.3884C5.77198 59.9559 5.28674 69.473 8.75846 75.8803C20.5732 78.7754 44.7748 78.8215 54.3028 75.8812ZM52.3918 55.128C54.899 61.0015 54.4667 69.1126 52.2189 73.9605C43.5734 76.4224 21.6135 76.3838 10.8931 73.9598C7.7429 68.5952 8.18319 60.6268 10.7202 55.128C27.0603 51.3049 36.7433 51.5848 52.3918 55.128Z" fill="#2850C2" fill-opacity="0.75"/>
<path fill-rule="evenodd" clip-rule="evenodd" d="M9.62673 0.160179C8.56101 0.650345 7.83042 2.18963 7.47808 4.67485C7.26317 6.14535 7.26317 11.0728 7.47808 13.3258C7.89063 17.6255 8.62973 22.2004 9.69551 27.0419C10.4862 30.6192 12.3083 37.4471 12.5318 37.7051C12.6865 37.8599 12.6005 37.9974 12.1621 38.3242C11.9129 38.5048 11.3628 38.9434 10.9331 39.296C10.512 39.6571 10.0736 40.0097 9.9705 40.0785C9.60095 40.3279 7.08268 43.0367 6.37795 43.9396C4.13474 46.7946 2.62208 49.5722 1.06643 53.6655C0.0350754 56.3657 -0.0508713 56.6409 0.0178862 57.0021C0.103833 57.4406 0.241348 57.6728 0.791409 58.2834C1.7798 59.3669 4.10036 60.8546 5.26064 61.147L5.67319 61.2502L5.60443 61.8607C5.57005 62.1961 5.52707 63.4172 5.51848 64.5779C5.50129 66.2638 5.47551 66.6933 5.38097 66.7449C5.31221 66.7797 4.95983 66.9429 4.58166 67.1151C3.14635 67.7511 1.57352 69.0668 0.903138 70.1677C0.490594 70.8559 0.327295 71.7072 0.481999 72.3431C0.885946 73.9426 1.67666 76.0839 2.54472 77.8639C5.47551 83.9097 9.69551 88.4411 15.5828 91.8465C17.912 93.188 20.7654 94.3489 23.4212 95.0113C26.5668 95.811 28.1139 96 31.4315 96C33.5801 96 34.1817 95.9658 35.385 95.8026C40.4129 95.1229 44.7704 93.5234 48.9303 90.8404C50.0475 90.118 52.2735 88.407 53.176 87.573C57.1725 83.8923 60.1635 79.2744 61.8996 74.1232C62.5012 72.3431 62.5786 71.9561 62.4582 71.3286C62.1746 69.8323 60.301 67.9832 58.0922 67.0203L57.439 66.7365L57.4303 64.6901C57.4218 63.5634 57.3874 62.3251 57.3444 61.9381L57.2757 61.2415L57.6538 61.1383C58.5992 60.8804 60.4557 59.771 61.5472 58.8079C62.1833 58.249 62.7849 57.475 62.888 57.0967C62.9997 56.7011 62.9653 56.6065 61.8824 53.7515C60.3268 49.6582 58.8141 46.8806 56.5709 44.0256C55.849 43.1141 53.2705 40.345 52.9009 40.0871C52.7892 40.0097 52.3595 39.6571 51.9298 39.296C51.5087 38.9434 50.95 38.5048 50.7093 38.3242C50.4601 38.1436 50.2538 37.963 50.2538 37.9287C50.2538 37.9029 50.3054 37.7997 50.3655 37.7051C50.5202 37.4815 50.8038 36.5356 51.4914 34.0074C53.6229 26.1131 54.8606 19.6722 55.4708 13.2399C55.677 10.9954 55.6857 6.23134 55.4708 4.76085C55.1184 2.24983 54.3449 0.66754 53.2362 0.168778C52.7463 -0.0548051 51.8696 -0.0548051 51.268 0.168778C47.3059 1.66507 41.5216 14.4782 37.8345 29.9054C37.5336 31.1523 37.2672 32.1928 37.2414 32.2186C37.2157 32.2444 36.8977 32.2186 36.5367 32.1585C35.2131 31.9521 31.5947 31.8489 29.1968 31.9521C27.9678 32.0123 26.6872 32.1069 26.352 32.1585C26.0168 32.2186 25.716 32.2273 25.673 32.1928C25.6386 32.1499 25.4238 31.3243 25.2003 30.3526C23.8509 24.5136 21.7624 17.8233 19.7426 12.8099C16.8205 5.58638 13.8897 1.03732 11.5949 0.168778C11.0019 -0.0548051 10.1166 -0.0548051 9.62673 0.160179ZM13.5717 4.0041C12.9185 3.08397 11.7238 1.88005 11.2253 1.64787C10.469 1.28669 10.0651 1.44148 9.66109 2.25843C9.36889 2.86898 9.12826 3.76332 8.93913 4.98443C8.73286 6.32593 8.7415 10.5998 8.94777 12.9389C9.4806 18.8381 10.7269 25.5799 12.5833 32.5024C13.0474 34.2395 13.8725 37.0687 13.9412 37.1289C13.9584 37.1461 14.964 36.5957 16.1759 35.8992C17.3792 35.2112 18.6941 34.4889 19.0809 34.3083C19.9919 33.8955 21.6679 33.2936 22.493 33.0958C22.8454 33.0098 23.2923 32.8894 23.4813 32.812C23.6705 32.7432 23.8939 32.683 23.9799 32.6744C24.1861 32.6744 24.1689 32.5369 23.8252 31.0233C21.264 19.9302 17.1213 8.99174 13.5717 4.0041ZM54.0097 5.07042C53.7346 3.27315 53.3135 2.09504 52.8064 1.66507C52.2822 1.2265 51.5774 1.49308 50.5546 2.53361C48.9818 4.12449 47.1511 7.28049 45.2861 11.6059C43.0171 16.8945 40.6019 24.4706 39.1237 30.9545C38.9604 31.6855 38.8057 32.3734 38.7799 32.4766C38.7456 32.6228 38.7713 32.6744 38.883 32.6744C38.969 32.683 39.1925 32.7432 39.3815 32.812C39.5706 32.8894 40.0175 33.0098 40.3699 33.0958C41.195 33.2936 42.8709 33.8955 43.782 34.3083C44.1688 34.4889 45.4751 35.2026 46.6784 35.8906C47.873 36.5785 48.8873 37.1461 48.9302 37.1461C49.0162 37.1461 49.7811 34.6265 50.4171 32.2444C52.2306 25.4424 53.4768 18.6833 54.0011 12.8529C54.2073 10.5224 54.216 6.41192 54.0097 5.07042ZM30.7524 35.9766C30.7797 35.9239 30.8384 33.6891 30.7524 33.543C30.6407 33.371 30.0649 33.3624 28.7671 33.5C23.7392 34.0245 19.0207 35.71 14.8007 38.479C10.5034 41.2996 6.58421 45.8573 4.05738 50.9481C3.45576 52.1692 2.55332 54.3534 2.55332 54.6028C2.55332 54.6372 3.12057 54.4222 3.81673 54.1213C9.57516 51.6275 19.2442 49.8388 28.8788 49.4776C29.9274 49.4346 30.5118 49.383 30.5719 49.3142C30.6149 49.2626 30.6579 48.3167 30.6579 47.0784L30.6665 44.9371L29.9961 44.7222C28.7156 44.3008 27.6326 43.2775 27.2029 42.0735C26.9794 41.463 26.8607 40.6098 27.0482 39.7001C27.2301 38.8175 27.6412 38.1351 28.0795 37.6362C28.5351 37.1203 29.2398 36.6646 30.0391 36.3721C30.4431 36.226 30.6062 36.2597 30.7524 35.9766ZM52.3681 42.0048C47.5808 37.2235 40.9973 34.1879 33.9325 33.4914C32.394 33.3452 32.4628 33.3452 32.2737 33.4569C32.1362 33.5343 32.119 33.6891 32.119 34.6781C32.119 35.3058 32.1448 35.8906 32.1706 35.9852C32.205 36.1142 32.3855 36.226 32.8152 36.3636C35.1959 37.1805 36.5195 39.6915 35.7632 41.9532C35.3678 43.1485 34.0872 44.3696 32.8582 44.7307L32.2479 44.9113L32.2737 47.0698C32.2823 48.2565 32.3081 49.2712 32.3253 49.3228C32.3511 49.383 32.9355 49.4346 33.9841 49.4776C43.6187 49.8388 53.2878 51.6275 59.0462 54.1213C59.7423 54.4222 60.3267 54.6459 60.3439 54.6114C60.4127 54.4911 59.4931 52.238 58.8485 50.9481C57.2155 47.6804 55.0239 44.6533 52.3681 42.0048ZM51.182 53.227C46.5925 52.1348 40.7051 51.3523 35.1271 51.0857C32.2393 50.9395 31.1392 50.9309 29.3257 50.9997C22.6305 51.2577 16.1673 52.109 10.8729 53.4161L9.40325 53.7773L9.06805 54.4996C8.36331 56.0303 7.71871 58.2232 7.41788 60.1494C6.78191 64.1912 7.0569 68.7572 8.14847 72.1025C8.52659 73.2551 9.53217 75.3705 9.76422 75.4905C9.98771 75.6111 12.102 76.0671 13.5975 76.316C15.282 76.5914 17.8776 76.9184 19.6997 77.0816C23.4212 77.4086 24.2119 77.4344 31.4315 77.4344C38.651 77.4344 39.4417 77.4086 43.1632 77.0816C47.0652 76.7378 52.5486 75.8433 53.1502 75.4563C53.4167 75.2757 54.4136 73.2119 54.8004 72.0168C55.5137 69.8323 55.8489 67.4415 55.8489 64.6211C55.8489 62.2563 55.6685 60.5536 55.1871 58.4726C54.9121 57.2686 54.2761 55.4198 53.8378 54.5169C53.4252 53.6741 53.7347 53.8289 51.182 53.227ZM6.12011 58.6875C6.36935 57.475 6.79049 56.0475 7.15146 55.136C7.47808 54.3276 7.46944 54.3191 6.67878 54.6201C3.65344 55.7552 2.00326 56.5463 1.90872 56.8989C1.83136 57.2257 1.91731 57.3718 2.4158 57.8018C3.50733 58.7478 5.01139 59.6077 5.62162 59.6249L5.92243 59.6335L6.12011 58.6875ZM61.0058 56.8989C60.8768 56.5635 59.0118 55.6606 56.6655 54.8092C55.677 54.448 55.4965 54.3964 55.4965 54.4653C55.4965 54.4824 55.6169 54.7748 55.763 55.1274C56.1068 55.9701 56.6397 57.8018 56.8373 58.8423L57.0007 59.6936L57.2929 59.642C57.9976 59.5303 59.4415 58.6789 60.4901 57.7674C61.0487 57.2858 61.1089 57.1741 61.0058 56.8989ZM5.86227 69.0926C5.82789 68.852 5.78491 68.594 5.75913 68.5082C5.74195 68.4308 5.65599 68.3618 5.57864 68.3618C5.35518 68.3702 4.28085 68.9636 3.70501 69.4112C3.069 69.9013 2.22672 70.7952 2.16656 71.0532C2.0892 71.337 2.4072 71.991 2.81116 72.4379C3.23229 72.8939 4.29804 73.5988 5.1661 73.9942C6.00838 74.3728 7.46087 74.9145 7.51244 74.8629C7.53822 74.8455 7.40073 74.4418 7.2116 73.9774C6.60142 72.4811 6.03416 70.4257 5.86227 69.0926ZM60.6534 70.9075C60.2494 70.2451 58.943 69.1532 57.9718 68.654C57.6538 68.4908 57.353 68.3618 57.3014 68.3618C57.1897 68.3618 57.1639 68.4308 57.0436 69.2647C56.8202 70.761 56.1755 72.9623 55.5739 74.287C55.4364 74.5875 55.3418 74.8546 55.3591 74.8713C55.3763 74.8888 55.7716 74.7681 56.2357 74.5876C58.711 73.6679 60.1979 72.6527 60.6534 71.5782C60.8253 71.1822 60.8253 71.1822 60.6534 70.9075ZM19.313 78.5953C14.3366 78.1393 10.2628 77.3738 6.85063 76.2477C5.82789 75.9123 4.8567 75.5253 4.12614 75.1551C3.49873 74.8372 2.98305 74.5876 2.98305 74.6133C2.98305 74.7514 3.85111 76.7204 4.3582 77.7349C8.46645 85.9303 16.5626 92.0361 25.5871 93.7298C27.7381 94.1344 30.1124 94.2475 30.6194 94.2679C30.674 94.2701 30.7175 94.2279 30.7169 94.1732C30.7113 93.6385 30.6875 90.9437 30.7181 86.5753L30.7696 79.0506L27.3834 78.999C23.7907 78.9391 22.407 78.87 19.313 78.5953ZM57.4046 79.7904C58.2125 78.5089 59.1665 76.574 59.7939 74.9745C59.8885 74.7423 59.9314 74.5617 59.897 74.5617C59.8627 74.5708 59.3298 74.8372 58.7195 75.1551C55.6427 76.7378 50.0819 78.0019 43.55 78.5953C40.4644 78.87 39.0807 78.9391 35.5397 78.999L32.205 79.0506L32.2136 84.3051C32.2222 87.1945 32.2479 90.6172 32.2823 91.9155L32.3318 94.1755C32.333 94.2286 32.3768 94.2706 32.4298 94.2694L33.1074 94.2548C34.8435 94.2199 37.886 93.6956 40.0261 93.059C47.2972 90.901 53.3565 86.2657 57.4046 79.7904Z" fill="#1A3A96"/>
<path d="M59.2328 75.3561C58.6054 76.9556 57.6514 78.8905 56.8435 80.172C52.7954 86.6473 47.5118 89.9108 40.2407 92.0688C38.1006 92.7054 35.0581 93.2297 33.322 93.2645L32.5484 93.2813L32.4969 90.9253C32.4625 89.627 32.2477 87.2259 32.239 84.3365L32.2305 79.082L35.5652 79.0304C39.1062 78.9705 39.9033 79.2517 42.9889 78.9763C49.5208 78.3829 55.0816 77.1188 58.1584 75.5367C58.7687 75.2188 59.3016 74.9517 59.3359 74.9434C59.3703 74.9434 59.3274 75.124 59.2328 75.3561Z" fill="url(#paint13_radial_5883_36341)"/>
<path d="M7.21724 76.4225C10.6293 77.5493 14.31 78.171 19.2863 78.627C22.3804 78.9017 23.7642 78.9708 27.3567 79.0307L30.743 79.0823L30.6914 86.607C30.6571 91.5086 30.4844 93.1739 30.4242 93.2339C30.364 93.2938 28.1732 93.1959 25.7495 92.7399C16.7251 91.0462 8.83299 86.1059 4.72476 77.9105C4.21767 76.8959 3.34961 74.9263 3.34961 74.7889C3.34961 74.7631 3.86529 75.0127 4.4927 75.3306C5.22325 75.7002 6.19444 76.0872 7.21724 76.4225Z" fill="url(#paint14_radial_5883_36341)"/>
<path d="M30.7693 33.5383C30.8553 33.6844 30.7966 35.8289 30.7693 35.8816C30.623 36.1647 30.4599 36.131 30.056 36.2772C29.2567 36.5696 28.5519 37.0253 28.0964 37.5413C27.6581 38.04 27.247 38.7226 27.0651 39.6052C26.8776 40.5149 26.9963 41.368 27.2198 41.9786C27.6495 43.1825 28.8914 44.2901 30.172 44.7114L30.8424 44.9264L30.8338 47.0677C30.8338 48.306 30.7909 49.2519 30.7479 49.3035C30.6877 49.3723 30.1033 49.4239 29.0547 49.4669C19.4201 49.828 11.889 50.3952 6.13061 52.889C5.43444 53.19 4.86719 53.405 4.86719 53.3706C4.86719 53.1212 5.76963 50.937 6.37126 49.7158C8.89807 44.625 13.4511 40.4462 17.7484 37.6255C21.9684 34.8566 25.258 33.8799 28.943 33.4893C30.2408 33.3517 30.6576 33.3663 30.7693 33.5383Z" fill="url(#paint15_radial_5883_36341)"/>
<path d="M33.958 33.5226C43.9944 34.4763 47.2625 38.5787 49.2802 40.148C51.2978 41.7174 55.2105 45.9741 56.8434 49.2419C57.488 50.5318 58.4077 52.7848 58.3389 52.9052C58.3218 52.9396 57.7373 52.716 57.0412 52.415C51.2827 49.9212 43.6442 49.8701 34.0096 49.5089C32.961 49.4659 32.359 49.3756 32.3332 49.3155C32.316 49.2639 32.3078 48.2877 32.2992 47.101L32.2648 45.149L32.8751 44.9684C34.1041 44.6072 35.4783 43.9855 36.1303 42.036C36.9234 39.6643 35.9984 37.2917 32.9073 36.3019C32.4775 36.1644 32.297 36.0526 32.2627 35.9236C32.2369 35.829 32.1445 35.3371 32.1445 34.7093C32.1445 33.7204 32.1617 33.5656 32.2992 33.4883C32.4883 33.3764 32.4195 33.3764 33.958 33.5226Z" fill="url(#paint16_radial_5883_36341)"/>
<path d="M34.4537 40.375C34.4537 41.9779 33.0584 43.2774 31.4563 43.2774C29.8543 43.2774 28.3945 41.9779 28.3945 40.375C28.3945 38.7721 29.8543 37.3438 31.4563 37.3438C33.0584 37.3438 34.4537 38.7721 34.4537 40.375Z" fill="#8FFFB4"/>
<path d="M27.2898 42.2458C9.51156 42.1097 6.44564 45.8556 3.38379 54.111C10.281 51.2409 24.3655 49.263 30.6825 49.263V45.0527C28.6808 44.8485 27.5867 43.0963 27.2898 42.2458Z" fill="white"/>
<path d="M35.9045 42.2441C47.5631 43.7884 54.05 45.9526 59.8836 54.079C52.9864 51.209 38.8287 49.2614 32.5117 49.2614V45.051C34.5134 44.8468 35.6076 43.0947 35.9045 42.2441Z" fill="white"/>
</g>
</g>
<defs>
<linearGradient id="paint0_linear_5883_36341" x1="122.59" y1="128.174" x2="195.504" y2="10.4101" gradientUnits="userSpaceOnUse">
<stop stop-color="#4272FA"/>
<stop offset="0.531251" stop-color="#5E90E5"/>
<stop offset="1" stop-color="#74E99A"/>
</linearGradient>
<linearGradient id="paint1_linear_5883_36341" x1="122.59" y1="128.173" x2="195.504" y2="10.4088" gradientUnits="userSpaceOnUse">
<stop stop-color="#4272FA"/>
<stop offset="0.531251" stop-color="#5E90E5"/>
<stop offset="1" stop-color="#74E99A"/>
</linearGradient>
<linearGradient id="paint2_linear_5883_36341" x1="122.59" y1="128.173" x2="195.504" y2="10.409" gradientUnits="userSpaceOnUse">
<stop stop-color="#4272FA"/>
<stop offset="0.531251" stop-color="#5E90E5"/>
<stop offset="1" stop-color="#74E99A"/>
</linearGradient>
<linearGradient id="paint3_linear_5883_36341" x1="122.59" y1="128.172" x2="195.504" y2="10.4084" gradientUnits="userSpaceOnUse">
<stop stop-color="#4272FA"/>
<stop offset="0.531251" stop-color="#5E90E5"/>
<stop offset="1" stop-color="#74E99A"/>
</linearGradient>
<linearGradient id="paint4_linear_5883_36341" x1="122.59" y1="128.173" x2="195.504" y2="10.409" gradientUnits="userSpaceOnUse">
<stop stop-color="#4272FA"/>
<stop offset="0.531251" stop-color="#5E90E5"/>
<stop offset="1" stop-color="#74E99A"/>
</linearGradient>
<linearGradient id="paint5_linear_5883_36341" x1="122.59" y1="128.173" x2="195.504" y2="10.409" gradientUnits="userSpaceOnUse">
<stop stop-color="#4272FA"/>
<stop offset="0.531251" stop-color="#5E90E5"/>
<stop offset="1" stop-color="#74E99A"/>
</linearGradient>
<linearGradient id="paint6_linear_5883_36341" x1="122.59" y1="128.173" x2="195.504" y2="10.409" gradientUnits="userSpaceOnUse">
<stop stop-color="#4272FA"/>
<stop offset="0.531251" stop-color="#5E90E5"/>
<stop offset="1" stop-color="#74E99A"/>
</linearGradient>
<linearGradient id="paint7_linear_5883_36341" x1="122.59" y1="128.173" x2="195.504" y2="10.4091" gradientUnits="userSpaceOnUse">
<stop stop-color="#4272FA"/>
<stop offset="0.531251" stop-color="#5E90E5"/>
<stop offset="1" stop-color="#74E99A"/>
</linearGradient>
<linearGradient id="paint8_linear_5883_36341" x1="122.59" y1="128.172" x2="195.504" y2="10.4084" gradientUnits="userSpaceOnUse">
<stop stop-color="#4272FA"/>
<stop offset="0.531251" stop-color="#5E90E5"/>
<stop offset="1" stop-color="#74E99A"/>
</linearGradient>
<linearGradient id="paint9_linear_5883_36341" x1="122.59" y1="128.174" x2="195.504" y2="10.4099" gradientUnits="userSpaceOnUse">
<stop stop-color="#4272FA"/>
<stop offset="0.531251" stop-color="#5E90E5"/>
<stop offset="1" stop-color="#74E99A"/>
</linearGradient>
<linearGradient id="paint10_linear_5883_36341" x1="122.59" y1="128.173" x2="195.504" y2="10.4094" gradientUnits="userSpaceOnUse">
<stop stop-color="#4272FA"/>
<stop offset="0.531251" stop-color="#5E90E5"/>
<stop offset="1" stop-color="#74E99A"/>
</linearGradient>
<radialGradient id="paint11_radial_5883_36341" cx="0" cy="0" r="1" gradientUnits="userSpaceOnUse" gradientTransform="translate(126.143 -183.326) rotate(108.602) scale(296.449 269.057)">
<stop offset="0.750891" stop-color="white"/>
<stop offset="1" stop-color="#63ACCF"/>
</radialGradient>
<radialGradient id="paint12_radial_5883_36341" cx="0" cy="0" r="1" gradientUnits="userSpaceOnUse" gradientTransform="translate(131.376 -265.026) rotate(105.386) scale(376.142 304.087)">
<stop offset="0.658193" stop-color="white"/>
<stop offset="1" stop-color="#63ACCF"/>
</radialGradient>
<radialGradient id="paint13_radial_5883_36341" cx="0" cy="0" r="1" gradientUnits="userSpaceOnUse" gradientTransform="translate(-1.75061 -58.0442) rotate(90) scale(159.393 90.8444)">
<stop offset="0.750891" stop-color="white"/>
<stop offset="1" stop-color="#63ACCF"/>
</radialGradient>
<radialGradient id="paint14_radial_5883_36341" cx="0" cy="0" r="1" gradientUnits="userSpaceOnUse" gradientTransform="translate(64.6134 -56.8372) rotate(90) scale(158.316 89.9286)">
<stop offset="0.750891" stop-color="white"/>
<stop offset="1" stop-color="#63ACCF"/>
</radialGradient>
<radialGradient id="paint15_radial_5883_36341" cx="0" cy="0" r="1" gradientUnits="userSpaceOnUse" gradientTransform="translate(64.4662 146.373) rotate(90) scale(146.31 94.8381)">
<stop offset="0.750891" stop-color="white"/>
<stop offset="1" stop-color="#63ACCF"/>
</radialGradient>
<radialGradient id="paint16_radial_5883_36341" cx="0" cy="0" r="1" gradientUnits="userSpaceOnUse" gradientTransform="translate(-1.60558 149.892) rotate(90) scale(149.891 94.0318)">
<stop offset="0.750891" stop-color="white"/>
<stop offset="1" stop-color="#63ACCF"/>
</radialGradient>
<clipPath id="clip0_5883_36341">
<rect width="260" height="96" fill="white"/>
</clipPath>
</defs>
</svg>
